<?xml version="1.0" standalone="no"?>
<!DOCTYPE svg PUBLIC "-//W3C//DTD SVG 1.1//EN" "http://www.w3.org/Graphics/SVG/1.1/DTD/svg11.dtd" >
<svg xmlns="http://www.w3.org/2000/svg">
<metadata></metadata>
<defs>
<font id="theserifbold" horiz-adv-x="1132" >
<font-face units-per-em="2048" ascent="1536" descent="-512" />
<missing-glyph horiz-adv-x="446" />
<glyph unicode="&#xfb01;" horiz-adv-x="1378" d="M29 815v203h204v37q0 122 40 211.5t115 142t171.5 77.5t218.5 25q184 0 336 -38l-47 -218q-144 41 -281 41q-156 0 -223 -58t-67 -171v-49h680v-828q72 -5 165 -24v-166h-573v166q87 19 145 24v625h-417v-625q58 -5 145 -24v-166h-586v166q100 19 178 24v625h-204z" />
<glyph unicode="&#xfb02;" horiz-adv-x="1378" d="M29 815v203h204v74q0 214 132 316.5t428 102.5q177 0 383 -32v-1289q72 -5 165 -24v-166h-573v166q87 19 145 24v1098q-80 12 -159 12q-135 0 -196.5 -53.5t-61.5 -163.5v-65h241v-203h-241v-625q58 -5 145 -24v-166h-586v166q100 19 178 24v625h-204z" />
<glyph unicode="&#xfb03;" horiz-adv-x="2050" d="M29 815v203h204v37q0 442 490 442q211 0 385 -59q130 73 344 73q184 0 336 -38l-49 -218q-141 41 -279 41q-156 0 -223.5 -58t-67.5 -171v-49h678v-828q74 -5 166 -24v-166h-573v166q87 19 145 24v625h-416v-625q60 -5 146 -24v-166h-553v166q87 19 145 24v625h-411v-625 q58 -5 145 -24v-166h-586v166q100 19 178 24v625h-204zM496 1018h411v39q0 119 37 186q-95 39 -207 39q-126 0 -183.5 -50.5t-57.5 -160.5v-53z" />
<glyph unicode="&#xfb04;" horiz-adv-x="2050" d="M29 815v203h204v37q0 442 490 442q201 0 379 -57q127 71 362 71q183 0 383 -32v-1289q74 -5 166 -24v-166h-573v166q87 19 145 24v1098q-71 12 -158 12q-135 0 -196.5 -53.5t-61.5 -163.5v-65h242v-203h-242v-625q60 -5 146 -24v-166h-553v166q87 19 145 24v625h-411 v-625q58 -5 145 -24v-166h-586v166q100 19 178 24v625h-204zM496 1018h411v74q0 88 29 155q-87 35 -199 35q-126 0 -183.5 -50.5t-57.5 -160.5v-53z" />
<glyph horiz-adv-x="2048" />
<glyph horiz-adv-x="2048" />
<glyph horiz-adv-x="682" />
<glyph unicode="&#x9;" horiz-adv-x="446" />
<glyph unicode="&#xd;" horiz-adv-x="446" />
<glyph unicode=" "  horiz-adv-x="446" />
<glyph unicode="&#x09;" horiz-adv-x="446" />
<glyph unicode="&#xa0;" horiz-adv-x="446" />
<glyph unicode="!" horiz-adv-x="622" d="M150 133q0 65 46 110.5t113 45.5t113.5 -45.5t46.5 -110.5q0 -66 -46 -111t-114 -45q-67 0 -113 45t-46 111zM158 1466h307l-39 -1081h-225z" />
<glyph unicode="&#x22;" horiz-adv-x="829" d="M90 1534h262l-33 -520h-196zM477 1534h262l-34 -520h-195z" />
<glyph unicode="#" horiz-adv-x="1421" d="M55 360v193h287l33 305h-260v193h280l35 331h225l-34 -331h251l33 331h228l-33 -331h266v-193h-287l-32 -305h260v-193h-281l-37 -360h-227l37 360h-250l-39 -360h-225l39 360h-269zM569 553h250l33 305h-250z" />
<glyph unicode="$" horiz-adv-x="1026" d="M96 905q0 136 91 235.5t237 127.5v207h186v-193q122 -6 242 -31v-325h-174q-18 74 -21 135q-50 8 -82 8q-106 0 -158 -38.5t-52 -98.5q0 -43 31.5 -75.5t81.5 -55t110 -44.5t120.5 -52.5t110.5 -70t81.5 -105t31.5 -150.5q0 -140 -94 -246t-252 -141v-250h-187v235 q-125 3 -258 33v334h178q14 -83 19 -135q48 -10 90 -10q103 0 165 37.5t62 115.5q0 46 -31 79.5t-80 56t-108.5 43.5t-119.5 50t-109 68t-80 104.5t-31 151.5z" />
<glyph unicode="%" horiz-adv-x="1677" d="M74 1063q0 166 102 264t246 98q72 0 131 -19t105.5 -58t72 -105t25.5 -153q0 -167 -104.5 -268t-250.5 -101q-150 0 -238.5 88t-88.5 254zM233 82l994 1354l188 -136l-993 -1353zM295 1073q0 -91 29 -131.5t88 -40.5q56 0 90.5 45.5t34.5 128.5q0 93 -29.5 131.5 t-91.5 38.5q-53 0 -87 -46t-34 -126zM899 299q0 166 102 264.5t244 98.5q97 0 170 -33t118.5 -110t45.5 -193q0 -167 -103 -268t-249 -101q-150 0 -239 88t-89 254zM1120 309q0 -91 29 -131.5t88 -40.5q55 0 89 45.5t34 128.5q0 92 -29 131t-90 39q-53 0 -87 -46t-34 -126z " />
<glyph unicode="&#x26;" horiz-adv-x="1689" d="M96 383q0 127 68 231t196 203q-101 115 -139.5 193.5t-38.5 167.5q0 144 109 242t299 98q173 0 268.5 -83t95.5 -221q0 -107 -58 -200.5t-183 -192.5q191 -191 372 -332q81 113 95 265q-67 7 -117 18v170h528v-170q-70 -16 -149 -22q-35 -234 -164 -408q68 -55 199 -152 q65 -6 139 -22v-168h-326q-54 38 -200 152q-100 -82 -236 -129.5t-293 -47.5q-116 0 -206.5 32.5t-146 89.5t-84 129.5t-28.5 156.5zM369 416q0 -89 64.5 -153t172.5 -64q156 0 293 102q-233 193 -385 358q-145 -120 -145 -243zM440 1190q0 -84 119 -219q69 59 103 111 t34 114q0 54 -32 88.5t-95 34.5q-57 0 -93 -35.5t-36 -93.5z" />
<glyph unicode="'" horiz-adv-x="442" d="M90 1534h262l-33 -520h-196z" />
<glyph unicode="(" horiz-adv-x="649" d="M106 584q0 533 279 985h244q-264 -443 -264 -975q0 -548 270 -989h-252q-277 447 -277 979z" />
<glyph unicode=")" horiz-adv-x="649" d="M23 -395q268 438 268 983q0 540 -266 981h249q275 -455 275 -981q0 -533 -279 -983h-247z" />
<glyph unicode="*" horiz-adv-x="786" d="M63 1087l207 82l-207 82l93 162l174 -139l-33 221h186l-32 -221l174 139l92 -160l-207 -82l207 -81l-92 -162l-174 139l32 -221h-186l33 221l-176 -139z" />
<glyph unicode="+" horiz-adv-x="1159" d="M49 418v219h406v416h247v-416h408v-219h-408v-418h-247v418h-406z" />
<glyph unicode="," horiz-adv-x="528" d="M55 -258q69 74 98.5 131.5t24.5 99.5t-39 82q-28 34 -32.5 78t11.5 81.5t54.5 64t89.5 26.5q87 0 134 -76q57 -94 15 -235q-53 -178 -247 -348z" />
<glyph unicode="-" horiz-adv-x="684" d="M90 416v209h504v-209h-504z" />
<glyph unicode="." horiz-adv-x="528" d="M96 143q0 69 49.5 118.5t118.5 49.5t117.5 -49.5t48.5 -118.5t-48.5 -118.5t-117.5 -49.5t-118.5 49.5t-49.5 118.5z" />
<glyph unicode="/" horiz-adv-x="870" d="M49 0l529 1382h256l-527 -1382h-258z" />
<glyph unicode="0" horiz-adv-x="1245" d="M86 514q0 128 45 234.5t121.5 177t175.5 109t209 38.5q113 0 203 -29.5t149 -80t98.5 -120t56.5 -145.5t17 -161q0 -128 -45 -234.5t-121.5 -177t-178 -109.5t-214.5 -39q-111 0 -201.5 29.5t-162.5 91.5t-112 168t-40 248zM346 530q0 -148 69 -237.5t206 -89.5 q117 0 197.5 88.5t80.5 238.5q0 146 -70 234t-202 88q-120 0 -200.5 -87t-80.5 -235z" />
<glyph unicode="1" horiz-adv-x="772" d="M31 934l315 119h203v-860q74 -6 172 -27v-166h-655v166q110 22 215 27v620l-209 -88z" />
<glyph unicode="2" horiz-adv-x="985" d="M82 0v213l213 166q153 121 213.5 192t60.5 138q0 71 -41.5 111t-121.5 40q-62 0 -117 -20q-4 -45 -21 -144h-166v312q155 63 344 63q196 0 304 -88.5t108 -237.5q0 -109 -64 -204t-194 -197l-149 -119l-2 -2q111 8 448 8v-231h-815z" />
<glyph unicode="3" horiz-adv-x="944" d="M72 -362l22 229q85 -29 193 -29q133 0 209.5 55.5t76.5 159.5q0 121 -114 166.5t-318 22.5v207q203 -1 308.5 61.5t105.5 177.5q0 78 -43.5 122t-124.5 44q-48 0 -104 -16q-2 -33 -19 -144h-166v314q150 59 314 59q208 0 311.5 -93.5t103.5 -248.5q0 -108 -64 -195.5 t-171 -130.5v-2q127 -29 195.5 -114.5t68.5 -204.5q0 -205 -157 -334t-423 -129q-107 0 -204 23z" />
<glyph unicode="4" horiz-adv-x="1140" d="M27 213l526 844h330v-821h217v-236h-217v-190q82 -6 166 -27v-158h-603v158q95 21 179 27v190h-555zM279 231q110 5 352 5v569h-2z" />
<glyph unicode="5" horiz-adv-x="950" d="M90 -375l25 236q70 -17 151 -17q156 0 239 66.5t83 171.5q0 106 -87 168.5t-249 62.5q-4 0 -121 -6v746h692v-256l-444 2v-273q227 0 357 -111.5t130 -297.5q0 -219 -173 -361.5t-439 -142.5q-88 0 -164 12z" />
<glyph unicode="6" horiz-adv-x="1189" d="M106 561q0 207 54 373t153 276.5t238 169t309 58.5q51 0 117 -4v-232q-72 10 -135 10q-176 0 -287.5 -93.5t-155.5 -262.5q-2 -8 -7.5 -29t-8.5 -36l2 -3q45 58 123.5 90.5t175.5 32.5q198 0 313 -118.5t115 -319.5q0 -218 -146 -357t-378 -139q-225 0 -353.5 152 t-128.5 432zM399 463q0 -114 55.5 -188t159.5 -74q103 0 163.5 68t60.5 175q0 115 -57.5 178.5t-157.5 63.5q-105 0 -164.5 -65.5t-59.5 -157.5z" />
<glyph unicode="7" horiz-adv-x="950" d="M45 653v400h856v-222q-245 -567 -377 -1206h-293q149 647 383 1198q-23 -2 -340 -2q-12 -108 -24 -168h-205z" />
<glyph unicode="8" horiz-adv-x="1140" d="M90 346q0 66 21.5 124t62 103.5t77.5 76.5t89 65l-2 2q-232 136 -232 346q0 173 132.5 280t339.5 107q206 0 326 -94t120 -250q0 -107 -58.5 -190t-181.5 -162q56 -33 98.5 -66t83 -78.5t62 -103t21.5 -123.5q0 -128 -69 -221.5t-181.5 -139t-251.5 -45.5 q-214 0 -335.5 101t-121.5 268zM365 375q0 -80 55.5 -129t148.5 -49q89 0 146 46t57 122t-55.5 131t-167.5 112h-2q-182 -112 -182 -233zM381 1075q0 -63 48 -112t149 -105l2 -2q93 62 133.5 112t40.5 113q0 66 -49.5 111t-137.5 45q-87 0 -136.5 -45.5t-49.5 -116.5z" />
<glyph unicode="9" horiz-adv-x="1189" d="M78 565q0 220 143 362t369 142q227 0 361 -149t134 -449q0 -404 -197.5 -631t-574.5 -227q-65 0 -135 12v240q67 -23 146 -23q181 0 290.5 81t153.5 247q3 11 9 40t9 40l-2 2q-46 -56 -120.5 -88.5t-167.5 -32.5q-192 0 -305 119t-113 315zM352 604q0 -116 55 -179 t160 -63q101 0 161 65t60 161q0 114 -56.5 185t-160.5 71q-98 0 -158.5 -68.5t-60.5 -171.5z" />
<glyph unicode=":" horiz-adv-x="563" d="M115 143q0 69 49 118.5t117 49.5q69 0 118.5 -49.5t49.5 -118.5t-49.5 -118.5t-118.5 -49.5q-68 0 -117 49.5t-49 118.5zM115 723q0 69 49 118.5t117 49.5q69 0 118.5 -49.5t49.5 -118.5t-49.5 -118.5t-118.5 -49.5q-68 0 -117 49.5t-49 118.5z" />
<glyph unicode=";" horiz-adv-x="563" d="M76 -258q68 74 97 131.5t24.5 99.5t-37.5 82q-29 34 -34 78t11 81.5t54.5 64t89.5 26.5q87 0 134 -76q57 -93 16 -233q-53 -179 -249 -350zM115 723q0 69 49 118.5t117 49.5q69 0 118.5 -49.5t49.5 -118.5t-49.5 -118.5t-118.5 -49.5q-68 0 -117 49.5t-49 118.5z" />
<glyph unicode="&#x3c;" horiz-adv-x="1032" d="M94 514l651 608l173 -172l-488 -434l488 -428l-170 -178z" />
<glyph unicode="=" horiz-adv-x="1169" d="M129 217v211h911v-211h-911zM129 608v211h911v-211h-911z" />
<glyph unicode="&#x3e;" horiz-adv-x="1032" d="M115 82l487 434l-487 428l170 178l653 -604l-651 -608z" />
<glyph unicode="?" horiz-adv-x="882" d="M111 1241l32 236q158 -6 283.5 -43t202.5 -96t117 -131.5t40 -153.5q0 -66 -22 -123.5t-55.5 -96t-73.5 -79t-75 -73.5t-60.5 -79t-30.5 -95t16 -122h-254q-28 79 -28.5 146.5t21.5 116t55.5 90t72.5 76.5t72 67t55.5 69t22.5 76q0 92 -105.5 149.5t-285.5 65.5zM205 133 q0 65 46.5 110.5t113.5 45.5t113 -45.5t46 -110.5q0 -66 -46 -111t-113 -45q-68 0 -114 45t-46 111z" />
<glyph unicode="@" horiz-adv-x="1660" d="M98 616q0 172 63 321.5t170.5 252.5t254.5 162t311 59q153 0 278.5 -46t207.5 -125.5t126.5 -185.5t44.5 -227q0 -239 -119 -363t-319 -124q-97 0 -145 47.5t-45 122.5h-6q-35 -71 -103.5 -120.5t-152.5 -49.5q-93 0 -142 64t-49 190q0 133 46 238t145.5 170t240.5 65 q117 0 228 -35l-62 -340q-17 -95 1 -133.5t75 -38.5q186 0 186 295q0 82 -25.5 152.5t-77 128t-140 90.5t-205.5 33q-155 0 -282.5 -72.5t-203 -206t-75.5 -301.5q0 -227 127 -355t378 -128q174 0 320 53v-193q-61 -25 -160.5 -39t-189.5 -14q-335 0 -518 177t-183 476z M666 631q0 -59 13 -86t42 -27q58 0 109.5 82t80.5 229l15 72q-38 10 -78 10q-57 0 -100 -46.5t-62.5 -109t-19.5 -124.5z" />
<glyph unicode="A" horiz-adv-x="1427" d="M16 0v166q56 17 109 20l422 1196h325l431 -1196q52 -3 108 -20v-166h-545v166q95 18 146 22l-60 164h-503l-58 -164q51 -4 146 -22v-166h-521zM514 559h373l-123 340q-44 119 -64 219h-2q-30 -135 -65 -229z" />
<glyph unicode="B" horiz-adv-x="1267" d="M47 0v166q100 19 178 24v1002q-70 5 -178 25v165h172q47 0 213.5 4.5t257.5 4.5q226 0 346.5 -88t120.5 -254q0 -102 -60 -187t-159 -123v-4q117 -25 181.5 -112t64.5 -197q0 -63 -17.5 -122t-58.5 -116t-103 -99t-159 -67.5t-217 -25.5q-31 0 -168.5 2t-235.5 2h-178z M492 221q62 -8 143 -8q129 0 196.5 55.5t67.5 151.5q0 97 -77 143.5t-214 46.5q-87 0 -116 -2v-387zM492 811q31 -2 106 -2q136 0 206 51.5t70 145.5q0 170 -227 170q-37 0 -155 -5v-360z" />
<glyph unicode="C" horiz-adv-x="1193" d="M78 647q0 228 76 394t235.5 261t390.5 95q164 0 318 -37v-397h-201q-18 95 -27 174q-78 16 -139 16q-170 0 -264 -125t-94 -336q0 -228 101 -346.5t325 -118.5q150 0 293 58l16 -246q-180 -59 -369 -59q-327 0 -494 175t-167 492z" />
<glyph unicode="D" horiz-adv-x="1447" d="M47 0v166q100 19 178 24v1002q-70 5 -178 25v165h172q47 0 203 4.5t250 4.5q698 0 698 -676q0 -175 -55 -313t-156 -227.5t-240 -136t-309 -46.5q-81 0 -221.5 4t-163.5 4h-178zM492 229q62 -10 143 -10q206 0 328 119t122 356q0 232 -102 352.5t-330 120.5 q-97 0 -161 -6v-932z" />
<glyph unicode="E" horiz-adv-x="1099" d="M47 0v166q100 19 178 24v1002q-70 5 -178 25v165h942v-348h-198q-19 122 -21 140h-278v-369h223q10 63 24 113h170v-416h-170q-11 32 -24 112h-223v-399h280q4 46 23 147h198v-362h-946z" />
<glyph unicode="F" horiz-adv-x="1050" d="M47 0v166q100 19 178 24v1002q-70 5 -178 25v165h940v-354h-199q-16 96 -20 141h-276v-381h231q6 56 22 113h170v-428h-170q-17 58 -22 113h-231v-396q78 -5 178 -24v-166h-623z" />
<glyph unicode="G" horiz-adv-x="1404" d="M74 659q0 164 54 301.5t152 235.5t242 152.5t318 54.5q189 0 385 -51v-371h-205q-14 69 -25 166q-79 20 -170 20q-207 0 -335 -127t-128 -356q0 -220 115.5 -342.5t325.5 -122.5q93 0 176 25v288q-85 6 -176 27v166h557v-170q-37 -8 -115 -20v-469q-214 -86 -477 -86 q-326 0 -510 181t-184 498z" />
<glyph unicode="H" horiz-adv-x="1568" d="M47 0v166q100 19 178 24v1002q-70 5 -178 25v165h594v-168q-57 -14 -149 -22v-363h585v363q-96 8 -149 22v168h594v-165q-108 -20 -179 -25v-1002q79 -5 179 -24v-166h-594v168q53 14 149 22v410h-585v-410q92 -8 149 -22v-168h-594z" />
<glyph unicode="I" horiz-adv-x="714" d="M47 0v166q100 19 178 24v1002q-70 5 -178 25v165h623v-165q-108 -20 -178 -25v-1002q78 -5 178 -24v-166h-623z" />
<glyph unicode="J" horiz-adv-x="737" d="M18 -2v229q55 -20 127 -20q77 0 114.5 41.5t37.5 148.5v795q-70 5 -178 25v165h573v-168q-68 -17 -129 -22v-805q0 -89 -19.5 -159.5t-61.5 -127.5t-116.5 -87.5t-177.5 -30.5q-76 0 -170 16z" />
<glyph unicode="K" horiz-adv-x="1425" d="M47 0v166q100 19 178 24v1002q-70 5 -178 25v165h580v-168q-51 -14 -135 -22v-461l409 465q-47 3 -106 18v168h561v-168q-72 -14 -127 -20l-438 -475l466 -531q56 -6 129 -20v-168h-583v168q49 11 102 18l-413 496v-492q84 -8 135 -22v-168h-580z" />
<glyph unicode="L" horiz-adv-x="1003" d="M47 0v166q100 19 178 24v1002q-70 5 -178 25v165h623v-165q-108 -20 -178 -25v-973h264q4 47 24 170h197v-389h-930z" />
<glyph unicode="M" horiz-adv-x="1918" d="M31 0v168q59 15 106 18l166 1006q-70 5 -178 25v165h524l232 -710q47 -141 75 -291h5q25 132 75 287l238 714h520v-165q-108 -20 -178 -25l168 -1006q47 -3 106 -18v-168h-532v166q89 17 143 22l-80 519q-35 220 -41 288h-4q-41 -191 -76 -301l-221 -694h-266l-209 641 q-64 186 -90 354h-4q-4 -46 -10 -96.5t-14.5 -111t-12.5 -91.5l-67 -508q54 -5 143 -22v-166h-518z" />
<glyph unicode="N" horiz-adv-x="1558" d="M47 0v166q125 23 178 27v999q-70 5 -178 25v165h522l416 -698q58 -94 154 -291q-15 194 -15 797q-75 6 -139 24v168h526v-168q-55 -14 -129 -24v-1190h-342l-422 702q-70 116 -147 295q12 -179 12 -804q75 -6 148 -25v-168h-584z" />
<glyph unicode="O" horiz-adv-x="1439" d="M68 674q0 167 53.5 306t145 231.5t214.5 143t262 50.5q140 0 254 -42.5t198.5 -126.5t130.5 -217.5t46 -307.5q0 -167 -53 -306.5t-144.5 -232.5t-214.5 -144t-264 -51q-310 0 -469 184t-159 513zM352 702q0 -227 91 -355t272 -128q70 0 134.5 27.5t118.5 82.5t86.5 148 t32.5 213q0 230 -95 352.5t-273 122.5q-73 0 -138 -29.5t-116.5 -85t-82 -145.5t-30.5 -203z" />
<glyph unicode="P" horiz-adv-x="1153" d="M47 0v166q100 19 178 24v1002q-70 5 -178 25v165h160q23 0 165.5 4.5t223.5 4.5q252 0 388 -112t136 -316q0 -100 -37.5 -188t-106 -152.5t-171 -102t-225.5 -37.5q-55 0 -88 4v-297q78 -5 178 -24v-166h-623zM492 711q41 -6 77 -6q124 2 199.5 66t75.5 175 q0 108 -64 168t-196 60q-46 0 -92 -3v-460z" />
<glyph unicode="Q" horiz-adv-x="1439" d="M68 674q0 167 53.5 306t145 231.5t214.5 143t262 50.5q140 0 254 -42.5t198.5 -126.5t130.5 -217.5t46 -307.5q0 -167 -53 -306.5t-144.5 -232.5t-214.5 -144t-264 -51q-310 0 -469 184t-159 513zM352 702q0 -227 91 -355t272 -128q70 0 134.5 27.5t118.5 82.5t86.5 148 t32.5 213q0 230 -95 352.5t-273 122.5q-73 0 -138 -29.5t-116.5 -85t-82 -145.5t-30.5 -203zM618 -127q66 8 129 8q31 0 61 -2q92 -6 154.5 -21t140.5 -29.5t151 -19.5q19 -1 40 -1q61 0 142 10v-234q-88 -13 -169 -13h-31q-96 3 -161.5 18.5t-143 30.5t-145.5 22 q-26 3 -57 3q-49 0 -111 -7v235z" />
<glyph unicode="R" horiz-adv-x="1255" d="M47 0v166q100 19 178 24v1002q-70 5 -178 25v165h160q12 0 164 4.5t252 4.5q501 0 501 -390q0 -143 -88.5 -243t-236.5 -131q39 -51 69 -101l213 -333q9 -1 136 -23v-170h-351l-338 571h-36v-381q75 -8 124 -22v-168h-569zM492 768q36 -4 94 -4q121 0 189.5 57t68.5 154 q0 199 -250 199q-55 0 -102 -7v-399z" />
<glyph unicode="S" horiz-adv-x="1036" d="M80 989q0 188 138 302t380 114q142 0 291 -31v-354h-203q-16 83 -22 158q-48 6 -72 6q-113 0 -171.5 -45.5t-58.5 -122.5q0 -39 20.5 -70.5t55.5 -54t80 -41.5t94.5 -38.5t99.5 -41t95 -52.5t80 -69t55.5 -95t20.5 -126q0 -198 -147 -324.5t-392 -126.5q-172 0 -315 35 v369h202q19 -109 23 -162q48 -10 96 -10q113 0 180.5 45.5t67.5 136.5q0 42 -20.5 74.5t-55 54.5t-79.5 40.5t-94.5 37t-99 39t-94.5 51.5t-79.5 70t-55 98t-20.5 133z" />
<glyph unicode="T" horiz-adv-x="1202" d="M35 993v389h1132v-389h-196q-23 145 -25 170h-213v-973q78 -5 178 -24v-166h-622v166q100 19 178 24v973h-211q-2 -25 -25 -170h-196z" />
<glyph unicode="U" horiz-adv-x="1456" d="M47 1214v168h543v-168q-55 -14 -148 -22v-696q0 -70 12.5 -121t43.5 -92.5t88.5 -62.5t140.5 -21q156 0 224.5 73t68.5 248v672q-94 8 -148 22v168h537v-168q-64 -16 -127 -22v-662q0 -553 -571 -553q-91 0 -166.5 14t-130.5 39t-96.5 61.5t-68 78.5t-43.5 94 t-23.5 103.5t-6.5 111.5v713q-66 6 -129 22z" />
<glyph unicode="V" horiz-adv-x="1386" d="M16 1214v168h543v-165q-113 -20 -147 -23l204 -621q52 -151 82 -270h2q40 164 84 287l207 604q-36 3 -143 23v165h522v-168q-59 -15 -106 -18l-418 -1196h-309l-414 1196q-48 3 -107 18z" />
<glyph unicode="W" horiz-adv-x="1996" d="M16 1214v168h537v-165q-113 -20 -147 -23l143 -576q27 -107 49 -280h2q25 166 53 272l211 772h283l215 -768q36 -134 53 -268h2q29 173 51 264l142 584q-31 3 -146 23v165h516v-168q-64 -15 -108 -18l-301 -1196h-326l-203 762q-25 87 -53 285h-2q-15 -142 -49 -279 l-203 -768h-309l-301 1196q-50 3 -109 18z" />
<glyph unicode="X" horiz-adv-x="1441" d="M20 0v168q79 15 130 18l397 516l-379 494q-47 2 -127 18v168h596v-168q-72 -16 -117 -18l219 -317l228 317q-42 2 -115 18v168h547v-168q-73 -14 -129 -20l-375 -487l401 -521q51 -3 125 -18v-168h-598v168q68 16 111 18l-236 342l-239 -342q40 -2 112 -18v-168h-551z " />
<glyph unicode="Y" horiz-adv-x="1251" d="M16 1214v168h527v-168q-52 -13 -121 -20l125 -272q59 -129 82 -191h6q29 72 88 197l127 266q-75 7 -123 20v168h510v-168q-64 -15 -109 -18l-372 -725v-281q78 -5 178 -24v-166h-623v166q100 19 178 24v281l-366 725q-50 3 -107 18z" />
<glyph unicode="Z" horiz-adv-x="1099" d="M84 0v205l528 827q51 83 88 131q-98 -4 -202 -4h-176q-7 -73 -21 -153h-205v376h918v-213l-555 -847q-12 -17 -32.5 -48.5t-31.5 -48.5q33 4 223 4h177q3 21 6.5 47t8 60t7.5 55h201v-391h-934z" />
<glyph unicode="[" horiz-adv-x="671" d="M145 -420v2011h453v-207h-207v-1593h207v-211h-453z" />
<glyph unicode="\" horiz-adv-x="847" d="M33 1382h246l540 -1382h-252z" />
<glyph unicode="]" horiz-adv-x="671" d="M74 -209h205v1593h-205v207h450v-2011h-450v211z" />
<glyph unicode="^" horiz-adv-x="1095" d="M102 782l334 600h203l350 -598l-188 -94l-269 506l-256 -506z" />
<glyph unicode="_" horiz-adv-x="1024" d="M0 -305h1024v-211h-1024v211z" />
<glyph unicode="`" horiz-adv-x="765" d="M170 1346l113 182l356 -225l-92 -152z" />
<glyph unicode="a" d="M78 248q0 177 159.5 271t428.5 97v62q0 85 -41.5 124.5t-145.5 39.5q-75 0 -143 -19q-3 -33 -21 -133h-165v299q181 53 356 53q121 0 204.5 -23.5t130.5 -71.5t67 -110.5t20 -150.5v-485q95 -15 168 -21v-166q-147 -18 -310 -18q-49 0 -100 2q0 108 10 174l-2 2 q-37 -87 -124.5 -140.5t-200.5 -53.5q-137 0 -214 72t-77 196zM328 287q0 -50 32 -79.5t89 -29.5q94 0 155.5 74t61.5 172v22q-338 0 -338 -159z" />
<glyph unicode="b" horiz-adv-x="1165" d="M-16 1315v164q159 19 345 19q47 0 95 -1v-440q0 -114 -16 -199h2q38 84 120 132t187 48q182 0 278.5 -125t96.5 -352q0 -263 -146.5 -422t-404.5 -159q-205 0 -379 49v1265q-94 15 -178 21zM424 207q59 -19 137 -19q118 0 187 83.5t69 263.5q0 286 -174 286 q-99 0 -159 -96.5t-60 -230.5v-287z" />
<glyph unicode="c" horiz-adv-x="915" d="M70 475q0 121 32 221.5t95.5 177.5t168 119.5t240.5 42.5q125 0 238 -35v-327h-168q-19 119 -21 135q-31 10 -84 10q-106 0 -167.5 -82.5t-61.5 -226.5q0 -147 63.5 -224t210.5 -77q120 0 215 45l19 -225q-146 -47 -293 -47q-231 0 -359 121t-128 372z" />
<glyph unicode="d" horiz-adv-x="1204" d="M72 455q0 262 144 421.5t394 159.5q69 0 129 -8v266q-94 15 -178 21v164q158 19 343 19q46 0 95 -1v-1296q92 -15 168 -21v-164q-144 -20 -314 -20q-48 0 -97 2q0 90 12 172h-4q-41 -88 -125 -140.5t-197 -52.5q-182 0 -276 127t-94 351zM346 483q0 -288 174 -288 q99 0 159 98t60 235v285q-75 16 -137 16q-120 0 -188 -83t-68 -263z" />
<glyph unicode="e" horiz-adv-x="1052" d="M70 500q0 240 127 390t350 150q108 0 191.5 -35t134.5 -97.5t76.5 -143.5t25.5 -178q0 -62 -8 -119h-631v-6q0 -277 280 -277q160 0 297 64l25 -203q-165 -65 -365 -65q-503 0 -503 520zM340 645h375v11q-1 87 -45 138q-48 54 -131 54q-81 0 -134.5 -55t-64.5 -148z" />
<glyph unicode="f" horiz-adv-x="768" d="M29 815v203h204v82q0 207 102.5 309t311.5 102q93 0 174 -16l-18 -215q-63 18 -135 18q-87 0 -129.5 -47t-42.5 -147v-86h241v-203h-241v-625q78 -5 178 -24v-166h-619v166q100 19 178 24v625h-204z" />
<glyph unicode="g" horiz-adv-x="1136" d="M72 -217q0 77 45 145.5t110 100.5q-100 51 -100 155q0 58 33 108t86 73q-70 39 -110 112.5t-40 171.5q0 81 29.5 151t85.5 124t145 85t201 31q92 0 178 -22h344v-205h-137q51 -51 51 -135q0 -170 -116 -271.5t-332 -101.5q-55 0 -94 8q-48 -20 -48 -65q0 -35 34.5 -49.5 t123.5 -14.5h158q167 0 258.5 -75.5t91.5 -219.5q0 -170 -156 -288.5t-405 -118.5q-206 0 -321 77t-115 224zM330 -168q0 -70 59 -109.5t158 -39.5q124 0 193 47.5t69 124.5q0 55 -40.5 88.5t-121.5 33.5h-178h-49q-42 -25 -66 -63.5t-24 -81.5zM346 666q0 -87 52.5 -135 t148.5 -48q90 0 143 48t53 133q0 87 -51 136.5t-145 49.5q-93 0 -147 -50.5t-54 -133.5z" />
<glyph unicode="h" horiz-adv-x="1302" d="M37 0v166q100 19 178 24v1104q-94 15 -178 21v164q159 19 345 19q47 0 95 -1v-438q0 -131 -18 -207l4 -2q45 88 131.5 139t202.5 51q83 0 143.5 -25t94.5 -71t49.5 -102.5t15.5 -126.5v-525q78 -6 168 -24v-166h-428v651q0 85 -28.5 127.5t-98.5 42.5q-99 0 -167.5 -97 t-68.5 -232v-302q94 -8 150 -22v-168h-590z" />
<glyph unicode="i" horiz-adv-x="696" d="M53 0v166q100 19 178 24v627q-94 15 -178 21v163q164 20 349 20q44 0 90 -1v-830q72 -5 165 -24v-166h-604zM199 1309q0 65 47 111t114 46q68 0 116 -45.5t48 -111.5t-48 -113t-116 -47q-67 0 -114 47t-47 113z" />
<glyph unicode="j" horiz-adv-x="632" d="M-63 -489l16 223q61 -23 129 -23q82 0 114.5 41.5t32.5 145.5v919q-94 15 -178 21v163q166 20 351 20q45 0 90 -1v-1096q0 -214 -94.5 -323t-309.5 -109q-77 0 -151 19zM197 1309q0 65 48 111t115 46q68 0 116 -45.5t48 -111.5t-48 -113t-116 -47q-67 0 -115 47t-48 113z " />
<glyph unicode="k" horiz-adv-x="1230" d="M37 0v166q100 19 178 24v1104q-94 15 -178 21v164q159 19 345 19q47 0 95 -1v-940l234 274q-60 6 -97 19v168h549v-168q-66 -17 -135 -23l-258 -278l277 -356q53 -5 145 -23v-170h-340l-375 516v-326q83 -7 129 -22v-168h-569z" />
<glyph unicode="l" horiz-adv-x="679" d="M37 0v166q100 19 178 24v1104q-94 15 -178 21v164q159 19 345 19q47 0 95 -1v-1307q72 -5 166 -24v-166h-606z" />
<glyph unicode="m" horiz-adv-x="1923" d="M53 0v166q100 19 178 24v627q-94 15 -178 21v163q165 20 340 20q42 0 84 -1q0 -96 -12 -184h2q46 95 134.5 149.5t201.5 54.5q123 0 190.5 -58.5t89.5 -145.5q40 85 126 144.5t206 59.5q305 0 305 -340v-510q72 -5 166 -24v-166h-428v645q0 88 -26.5 132t-94.5 44 q-90 0 -161.5 -95t-71.5 -239v-297q94 -7 149 -22v-168h-407v645q0 41 -5 70.5t-18 54.5t-37.5 38t-60.5 13q-93 0 -163 -97t-70 -237v-297q96 -8 149 -22v-168h-588z" />
<glyph unicode="n" horiz-adv-x="1316" d="M53 0v166q100 19 178 24v627q-94 15 -178 21v163q165 20 340 20q42 0 84 -1q0 -108 -14 -182l2 -2q47 94 136 149t210 55q83 0 143.5 -25t94.5 -71t49.5 -102.5t15.5 -126.5v-525q75 -5 168 -24v-166h-428v651q0 84 -28 127t-97 43q-99 0 -168 -97t-69 -232v-302 q96 -8 149 -22v-168h-588z" />
<glyph unicode="o" d="M68 492q0 239 144.5 392.5t375.5 153.5q224 0 349.5 -127.5t125.5 -382.5q0 -240 -146 -394t-374 -154q-226 0 -350.5 125t-124.5 387zM338 518q0 -315 227 -315q101 0 164.5 80.5t63.5 230.5q0 303 -224 303q-96 0 -163.5 -76t-67.5 -223z" />
<glyph unicode="p" horiz-adv-x="1220" d="M47 -328q108 20 178 25v1120q-94 15 -178 21v163q165 20 338 20q42 0 84 -1q0 -92 -12 -172h4q44 91 125 140.5t194 49.5q180 0 276.5 -124t96.5 -351q0 -270 -138.5 -423.5t-398.5 -153.5q-74 0 -131 8v-297q71 -5 179 -25v-166h-617v166zM485 207q65 -19 138 -19 q120 0 188 83.5t68 263.5q0 288 -174 288q-99 0 -159.5 -98.5t-60.5 -235.5v-282z" />
<glyph unicode="q" horiz-adv-x="1144" d="M74 455q0 264 146 422.5t409 158.5q187 0 372 -30v-1309q62 -4 173 -25v-166h-611v166q108 20 178 25v270q0 115 15 197l-4 2q-40 -88 -120 -138.5t-181 -50.5q-184 0 -280.5 122t-96.5 356zM348 483q0 -288 172 -288q99 0 160 99t61 238v283q-75 14 -137 14 q-120 0 -188 -83t-68 -263z" />
<glyph unicode="r" horiz-adv-x="839" d="M53 0v166q100 19 178 24v627q-94 15 -178 21v163q165 20 340 20q42 0 84 -1q0 -99 -18 -207h4q87 228 310 228q16 0 34 -1l-12 -258q-38 7 -71 7q-102 -1 -158 -69q-74 -90 -74 -304v-226q78 -5 178 -24v-166h-617z" />
<glyph unicode="s" horiz-adv-x="899" d="M72 713q0 144 114 234.5t324 90.5q126 0 264 -30v-293h-166q-13 52 -20 131q-48 10 -92 10q-81 0 -121.5 -30t-40.5 -83q0 -36 27 -62.5t70.5 -43t95.5 -32.5t104.5 -37t96 -49.5t70.5 -77t27 -113.5q0 -152 -125.5 -250t-334.5 -98q-136 0 -267 28v305h166 q14 -59 21 -133q48 -10 102 -10q79 0 127.5 32.5t48.5 88.5q0 36 -27 61.5t-70.5 41.5t-95.5 31t-104.5 36.5t-96 51t-70.5 80.5t-27 120z" />
<glyph unicode="t" horiz-adv-x="768" d="M12 815v203h174v313l263 70v-383h247v-203h-247v-446q0 -97 26 -132.5t94 -35.5t127 16v-211q-107 -26 -213 -26q-168 0 -231.5 69.5t-63.5 249.5v516h-176z" />
<glyph unicode="u" horiz-adv-x="1292" d="M37 838v166q148 17 328 17q49 0 100 -1v-653q0 -84 28 -127t97 -43q99 0 168 97t69 232v293q-108 16 -149 19v168q155 15 315 15q48 0 97 -1v-819q97 -16 165 -21v-166q-147 -18 -309 -18q-49 0 -100 2q0 116 12 182l-4 2q-48 -94 -137 -149.5t-209 -55.5 q-83 0 -143.5 25.5t-94.5 71.5t-49.5 102.5t-15.5 126.5v514q-95 15 -168 21z" />
<glyph unicode="v" horiz-adv-x="1157" d="M16 850v168h494v-168q-59 -14 -107 -19l111 -323q49 -148 70 -242h4q34 154 63 238l113 327q-45 5 -109 19v168h486v-168q-47 -14 -109 -21l-289 -829h-331l-285 829q-60 7 -111 21z" />
<glyph unicode="w" horiz-adv-x="1736" d="M16 850v168h488v-168q-59 -14 -103 -19l80 -292q7 -27 30 -110t32 -126h2q22 120 71 270l140 445h241l140 -445q40 -124 73 -270h4q19 90 56 219l90 309q-53 6 -103 19v168h463v-168q-53 -15 -110 -21l-254 -829h-291l-147 453q-25 75 -60 227h-2q-15 -77 -68 -256 l-129 -424h-286l-246 829q-59 6 -111 21z" />
<glyph unicode="x" horiz-adv-x="1110" d="M20 0v170q109 21 154 25l211 319l-197 309q-40 3 -155 25v170h354l176 -330l178 330h334v-170q-109 -21 -155 -25l-187 -307l201 -321q49 -4 156 -25v-170h-369l-178 338l-178 -338h-345z" />
<glyph unicode="y" horiz-adv-x="1159" d="M16 850v168h490v-168q-59 -14 -103 -19l103 -290q37 -106 80 -273h2q39 162 88 301l90 262q-43 5 -102 19v168h479v-168q-53 -15 -111 -21l-323 -935q-78 -228 -182.5 -317t-282.5 -89q-80 0 -158 16l14 226q76 -23 146 -23t118.5 43t86.5 152l34 98h-75l-283 829 q-63 6 -111 21z" />
<glyph unicode="z" horiz-adv-x="937" d="M78 0v193l473 632q-78 -4 -182 -4h-93q-8 -58 -20 -125h-172v322h760v-193l-465 -618q43 2 182 2h105q7 70 20 129h170v-338h-778z" />
<glyph unicode="{" horiz-adv-x="741" d="M55 543v196q110 6 157.5 52.5t47.5 169.5v178q0 230 87.5 341t285.5 111h43v-207q-101 0 -136.5 -47.5t-35.5 -193.5v-176q0 -156 -49 -232t-140 -92v-2q189 -30 189 -332v-274q0 -101 16 -152.5t51.5 -71.5t104.5 -20v-211h-43q-198 0 -285.5 109t-87.5 348v276 q0 123 -49 173.5t-156 56.5z" />
<glyph unicode="|" horiz-adv-x="565" d="M174 -512v2048h209v-2048h-209z" />
<glyph unicode="}" horiz-adv-x="737" d="M72 -209q102 0 138 48.5t36 195.5v274q0 303 188 332v2q-188 26 -188 318v182q0 145 -36 193t-138 48v207h45q198 0 284 -111t86 -341v-172q0 -128 47 -175t158 -53v-196q-106 -6 -155.5 -56.5t-49.5 -173.5v-276q0 -240 -86.5 -348.5t-283.5 -108.5h-45v211z" />
<glyph unicode="~" horiz-adv-x="1173" d="M80 614q132 119 297 119q65 0 126 -18t100.5 -39.5t91 -39.5t100.5 -18q104 0 213 97l82 -189q-55 -64 -133.5 -100.5t-168.5 -36.5q-61 0 -124 18t-107 39.5t-99 39.5t-102 18q-108 0 -196 -84z" />
<glyph unicode="&#xa1;" horiz-adv-x="622" d="M143 885q0 66 46 110.5t114 44.5t114 -44.5t46 -110.5q0 -65 -46.5 -109.5t-113.5 -44.5t-113.5 44.5t-46.5 109.5zM158 -449l28 1084h226l32 -1084h-286z" />
<glyph unicode="&#xa2;" horiz-adv-x="978" d="M82 551q0 196 100 332.5t275 169.5v190h196v-180q101 0 217 -33v-330h-165q-14 78 -23 144q-52 10 -94 10q-105 2 -170.5 -76t-65.5 -213q0 -272 275 -272q123 0 237 49l17 -229q-132 -38 -228 -45v-207h-196v211q-183 21 -279 147.5t-96 331.5z" />
<glyph unicode="&#xa3;" horiz-adv-x="1087" d="M109 0v201q54 32 89.5 60.5t64.5 64t42.5 78.5t13.5 96q0 9 -1.5 27.5t-5 53.5t-5.5 62h-190v201h170q-2 17 -9 67.5t-10.5 86t-3.5 63.5q0 202 100.5 295.5t307.5 93.5q118 0 241 -29v-323h-165q-19 89 -23 133q-32 4 -51 4q-71 0 -108.5 -44t-37.5 -128q0 -43 21 -219 h258v-201h-240q8 -52 8 -111q0 -98 -36.5 -172.5t-112.5 -142.5q105 6 133 6h209q5 67 25 164h194v-387h-878z" />
<glyph unicode="&#xa4;" horiz-adv-x="1112" d="M74 84l139 174q-70 99 -70 252q0 148 80 252l-149 188l200 142l146 -199q68 27 147 27q72 0 131 -23l144 197l196 -146l-143 -182q59 -88 59 -236q0 -142 -75 -243l159 -203l-198 -145l-158 211q-74 -33 -152 -33q-62 0 -112 18l-142 -194zM373 520q0 -97 43.5 -155 t132.5 -58q74 0 125 56t51 163q0 203 -178 203q-73 0 -123.5 -55.5t-50.5 -153.5z" />
<glyph unicode="&#xa5;" horiz-adv-x="1243" d="M20 1214v168h515v-168q-46 -13 -123 -20l116 -240q15 -30 48.5 -93.5t48.5 -94.5h4q15 35 53 106t51 97l115 225q-74 7 -125 20v168h502v-168q-59 -15 -107 -18l-284 -520h247v-146h-329v-118h329v-148h-329v-90q78 -5 178 -24v-150h-621v150q100 19 178 24v90h-329v148 h329v118h-329v146h250l-281 520q-50 3 -107 18z" />
<glyph unicode="&#xa6;" horiz-adv-x="565" d="M174 262h209v-774h-209v774zM174 782v754h209v-754h-209z" />
<glyph unicode="&#xa7;" horiz-adv-x="1044" d="M121 690q0 90 39 168t102 125q-63 81 -63 199q0 69 25 129t76 109.5t138 78.5t201 29q87 0 149 -15l-14 -219q-71 19 -141 19q-156 0 -156 -123q0 -35 24.5 -74.5t63.5 -78.5t86.5 -82t94.5 -93.5t86 -104.5t63.5 -122.5t24.5 -140.5q0 -86 -40 -164.5t-102 -126.5 q68 -90 68 -207q0 -50 -15 -97.5t-50.5 -92.5t-87.5 -79t-132 -54.5t-178 -20.5q-74 0 -164 16l17 228q80 -25 153 -25q90 0 133 36.5t43 94.5q0 37 -24.5 77t-63.5 78.5t-86.5 80t-95 90.5t-86.5 101.5t-63.5 120t-24.5 140.5zM358 723q0 -75 59 -153t218 -230 q22 19 35.5 52.5t13.5 68.5q0 38 -13 73t-43 73.5t-58 68.5t-78 81t-84 89q-50 -40 -50 -123z" />
<glyph unicode="&#xa8;" horiz-adv-x="1118" d="M193 1327q0 60 41 100.5t100 40.5t100 -40.5t41 -100.5q0 -59 -41.5 -100t-99.5 -41t-99.5 41t-41.5 100zM606 1327q0 60 41.5 100.5t100.5 40.5t100 -40.5t41 -100.5q0 -59 -41.5 -100t-99.5 -41q-59 0 -100.5 41.5t-41.5 99.5z" />
<glyph unicode="&#xa9;" horiz-adv-x="1560" d="M78 682q0 143 55.5 272.5t149 223t223 149t272.5 55.5q190 0 351.5 -93t255.5 -254t94 -351t-94 -351.5t-255.5 -255t-351.5 -93.5q-145 0 -275 55t-223 148.5t-147.5 222.5t-54.5 272zM274 684q0 -137 67.5 -253.5t183.5 -184.5t253 -68q209 0 355.5 147.5t146.5 356.5 q0 137 -67 253.5t-182.5 184.5t-252.5 68q-209 0 -356.5 -147.5t-147.5 -356.5zM440 670q0 78 21 144t64 120.5t116.5 85.5t171.5 31q68 0 164 -21v-256h-129q-1 5 -19 105q-24 4 -45 4q-137 0 -137 -195q0 -101 40.5 -147.5t133.5 -46.5q75 0 152 26l12 -170 q-112 -28 -201 -28q-178 0 -261 92.5t-83 255.5z" />
<glyph unicode="&#xaa;" horiz-adv-x="876" d="M78 844q0 128 113.5 195.5t306.5 70.5v33q0 46 -27.5 73t-99.5 27q-38 0 -92 -12q-8 -58 -15 -92h-135v223q150 41 262 41q91 0 154 -18t98.5 -53t50.5 -80.5t15 -106.5v-301q98 -15 133 -17v-147q-138 -18 -332 -14q0 59 10 108h-4q-24 -52 -86 -87.5t-135 -35.5 q-106 0 -161.5 53t-55.5 140zM281 874q0 -30 19.5 -47.5t55.5 -17.5q64 0 103 49t39 98v21q-109 0 -163 -24.5t-54 -78.5z" />
<glyph unicode="&#xab;" horiz-adv-x="1093" d="M86 508l225 401l203 -94l-178 -307l180 -299l-211 -98zM530 508l248 393l197 -98l-193 -295l195 -289l-205 -98z" />
<glyph unicode="&#xac;" horiz-adv-x="1142" d="M70 430v213h966v-518h-231v305h-735z" />
<glyph unicode="&#xad;" horiz-adv-x="684" d="M90 416v209h504v-209h-504z" />
<glyph unicode="&#xae;" horiz-adv-x="1155" d="M98 1090q0 197 140.5 334t339.5 137q200 0 339.5 -136t139.5 -335q0 -129 -64.5 -238t-175 -172.5t-239.5 -63.5q-201 0 -340.5 137.5t-139.5 336.5zM256 1092q0 -134 94.5 -230t227.5 -96q132 0 225.5 94t93.5 227t-94 229.5t-225 96.5q-133 0 -227.5 -94.5 t-94.5 -226.5zM387 862v74q26 10 47 14v281q-5 2 -22 6.5t-25 7.5v74h51q17 0 72 2t80 2q86 0 132 -34t46 -99q0 -42 -22 -75.5t-58 -47.5q16 -26 23 -43l30 -74q9 -1 41 -12v-76h-139l-65 172h-31v-84q21 -4 41 -12v-76h-201zM547 1124h26q35 -1 52.5 15t17.5 41 q0 48 -59 45q-2 2 -10 2t-18 -1l-9 -1v-101z" />
<glyph unicode="&#xaf;" horiz-adv-x="704" d="M119 1229v190h444v-190h-444z" />
<glyph unicode="&#xb0;" horiz-adv-x="794" d="M86 1231q0 87 46 154.5t115.5 101t147.5 33.5q151 0 226 -80t75 -203q0 -134 -93.5 -212.5t-221.5 -78.5q-137 0 -216 76.5t-79 208.5zM281 1233q0 -56 30 -88.5t80 -32.5t80.5 35t30.5 90q0 47 -28 83t-81 36q-50 0 -81 -34t-31 -89z" />
<glyph unicode="&#xb1;" horiz-adv-x="1206" d="M98 545v215h381v379h248v-379h381v-215h-381v-383h-248v383h-381zM109 57h989v-219h-989v219z" />
<glyph unicode="&#xb2;" horiz-adv-x="790" d="M59 553v186l183 144q113 91 152.5 137t39.5 90q0 98 -108 98q-52 0 -84 -14q-7 -65 -21 -125h-151v279q130 49 301 49q165 0 245 -66t80 -182q0 -83 -40.5 -153t-129.5 -140l-129 -102q123 6 328 6v-207h-666z" />
<glyph unicode="&#xb3;" horiz-adv-x="737" d="M61 553l23 172q103 -23 178 -23q168 0 168 91q0 28 -12.5 46.5t-47.5 32t-97.5 12.5t-163.5 -10v156q178 0 245.5 28t67.5 91q0 37 -27 60.5t-78 23.5q-23 0 -69 -8q-7 -62 -21 -109h-151v250q148 31 276 31q158 0 238 -58.5t80 -158.5q0 -138 -131 -189 q68 -13 107.5 -64t39.5 -118q0 -125 -113.5 -199.5t-306.5 -74.5q-95 0 -205 18z" />
<glyph unicode="&#xb4;" horiz-adv-x="804" d="M184 1303l359 225l108 -180l-377 -195z" />
<glyph unicode="&#xb6;" horiz-adv-x="1206" d="M113 930q0 204 134 328t351 124v-909q-123 -1 -218 35t-152 100t-86 145.5t-29 176.5zM614 12h144v1370h356v-208h-133v-1371h-367v209z" />
<glyph unicode="&#xb7;" horiz-adv-x="550" d="M106 588q0 69 50 119.5t120 50.5q69 0 119.5 -50.5t50.5 -119.5q0 -70 -50.5 -120t-119.5 -50q-70 0 -120 50t-50 120z" />
<glyph unicode="&#xb8;" horiz-adv-x="819" d="M252 -410q188 124 84 306h239q135 -262 -200 -406z" />
<glyph unicode="&#xb9;" horiz-adv-x="688" d="M37 1296l237 86h215v-649q98 -12 160 -26v-154h-592v154q78 20 181 26v430l-162 -67z" />
<glyph unicode="&#xba;" horiz-adv-x="872" d="M80 1018q0 176 104 281.5t262 105.5q157 0 249.5 -88t92.5 -279q0 -176 -105 -282.5t-269 -106.5q-73 0 -132 20.5t-105 63t-71.5 115t-25.5 170.5zM289 1030q0 -87 33 -144t106 -57q65 0 106 49t41 150q0 195 -141 195q-60 0 -102.5 -48t-42.5 -145z" />
<glyph unicode="&#xbb;" horiz-adv-x="1093" d="M117 801l205 100l241 -389l-248 -391l-196 96l192 295zM578 813l210 96l220 -397l-226 -401l-202 96l178 305z" />
<glyph unicode="&#xbc;" horiz-adv-x="2019" d="M37 1296l237 86h215v-649q98 -12 160 -26v-154h-592v154q78 20 181 26v430l-162 -67zM377 -217l864 1730h266l-862 -1730h-268zM1174 401l333 428h305v-440h130v-172h-130v-70q65 -6 125 -22v-125h-505v125q70 16 141 22v70h-371zM1368 383q53 2 209 2v281z" />
<glyph unicode="&#xbd;" horiz-adv-x="2043" d="M37 1296l237 86h215v-649q98 -12 160 -26v-154h-592v154q78 20 181 26v430l-162 -67zM377 -217l864 1730h266l-862 -1730h-268zM1296 0v186l183 144q113 91 152.5 137t39.5 90q0 98 -108 98q-52 0 -84 -14q-7 -65 -21 -125h-151v279q130 49 301 49q165 0 245 -66t80 -182 q0 -83 -40.5 -153t-129.5 -140l-129 -102q114 6 328 6v-207h-666z" />
<glyph unicode="&#xbe;" horiz-adv-x="2041" d="M61 553l23 172q103 -23 178 -23q168 0 168 91q0 28 -12.5 46.5t-47.5 32t-97.5 12.5t-163.5 -10v156q178 0 245.5 28t67.5 91q0 37 -27 60.5t-78 23.5q-23 0 -69 -8q-7 -62 -21 -109h-151v250q148 31 276 31q158 0 238 -58.5t80 -158.5q0 -138 -131 -189 q68 -13 107.5 -64t39.5 -118q0 -125 -113.5 -199.5t-306.5 -74.5q-95 0 -205 18zM387 -217l864 1730h265l-863 -1730h-266zM1186 401l334 428h303v-440h129v-172h-129v-70q68 -6 125 -22v-125h-506v125q68 16 143 22v70h-373zM1378 383q53 2 209 2v281z" />
<glyph unicode="&#xbf;" horiz-adv-x="882" d="M96 -35q0 52 13.5 98.5t36 81.5t51.5 67t59 60t58.5 57t50.5 60.5t35.5 66.5t13.5 80.5t-17 98.5h254q35 -92 28.5 -168t-36.5 -126.5t-75 -98t-86.5 -82t-71 -78.5t-29.5 -88q0 -92 105.5 -150.5t285.5 -64.5l-33 -238q-158 6 -283.5 43t-202.5 96t-117 131.5t-40 153.5 zM356 885q0 66 46.5 110.5t115.5 44.5q68 0 114 -44.5t46 -110.5q0 -65 -46.5 -109.5t-113.5 -44.5q-69 0 -115.5 44.5t-46.5 109.5z" />
<glyph unicode="&#xc0;" horiz-adv-x="1427" d="M16 0v166q56 17 109 20l422 1196h325l431 -1196q52 -3 108 -20v-166h-545v166q95 18 146 22l-60 164h-503l-58 -164q51 -4 146 -22v-166h-521zM403 1665l113 182l356 -225l-92 -152zM514 559h373l-123 340q-44 119 -64 219h-2q-30 -135 -65 -229z" />
<glyph unicode="&#xc1;" horiz-adv-x="1427" d="M16 0v166q56 17 109 20l422 1196h325l431 -1196q52 -3 108 -20v-166h-545v166q95 18 146 22l-60 164h-503l-58 -164q51 -4 146 -22v-166h-521zM514 559h373l-123 340q-44 119 -64 219h-2q-30 -135 -65 -229zM543 1622l358 225l109 -180l-377 -194z" />
<glyph unicode="&#xc2;" horiz-adv-x="1427" d="M16 0v166q56 17 109 20l422 1196h325l431 -1196q52 -3 108 -20v-166h-545v166q95 18 146 22l-60 164h-503l-58 -164q51 -4 146 -22v-166h-521zM399 1636l308 181l313 -179l-84 -153l-231 129l-228 -129zM514 559h373l-123 340q-44 119 -64 219h-2q-30 -135 -65 -229z" />
<glyph unicode="&#xc3;" horiz-adv-x="1427" d="M16 0v166q56 17 109 20l422 1196h325l431 -1196q52 -3 108 -20v-166h-545v166q95 18 146 22l-60 164h-503l-58 -164q51 -4 146 -22v-166h-521zM342 1706q98 88 211 88q49 0 93 -15.5t71.5 -34.5t66.5 -34.5t78 -15.5q81 0 146 65l51 -174q-37 -34 -96.5 -60t-114.5 -26 q-53 0 -98.5 15.5t-72 34.5t-65.5 34.5t-80 15.5q-72 0 -139 -67zM514 559h373l-123 340q-44 119 -64 219h-2q-30 -135 -65 -229z" />
<glyph unicode="&#xc4;" horiz-adv-x="1427" d="M16 0v166q56 17 109 20l422 1196h325l431 -1196q52 -3 108 -20v-166h-545v166q95 18 146 22l-60 164h-503l-58 -164q51 -4 146 -22v-166h-521zM358 1628q0 60 41.5 100.5t100.5 40.5t100 -40.5t41 -100.5q0 -58 -41.5 -99.5t-99.5 -41.5q-59 0 -100.5 41.5t-41.5 99.5z M514 559h373l-123 340q-44 119 -64 219h-2q-30 -135 -65 -229zM772 1628q0 60 41 100.5t100 40.5t100.5 -40.5t41.5 -100.5q0 -58 -41.5 -99.5t-100.5 -41.5t-100 41.5t-41 99.5z" />
<glyph unicode="&#xc5;" horiz-adv-x="1427" d="M16 0v166q56 17 109 20l422 1196h325l431 -1196q52 -3 108 -20v-166h-545v166q95 18 146 22l-60 164h-503l-58 -164q51 -4 146 -22v-166h-521zM449 1583q0 106 76 177t184 71q110 0 185 -71t75 -177q0 -105 -76 -177.5t-184 -72.5q-110 0 -185 71t-75 179zM514 559h373 l-123 340q-44 119 -64 219h-2q-30 -135 -65 -229zM600 1583q0 -44 32.5 -76t76.5 -32t75 32t31 76q0 45 -31 77t-75 32t-76.5 -32.5t-32.5 -76.5z" />
<glyph unicode="&#xc6;" horiz-adv-x="1693" d="M-63 0v166q56 17 110 20l528 1006q-70 5 -178 25v165h1174v-348h-197q-16 82 -22 140h-275v-369h223q8 55 25 113h170v-416h-170q-13 38 -25 112h-223v-399h285q5 55 22 147h201v-362h-919v168q66 15 145 22v162h-414l-84 -164q52 -5 125 -22v-166h-501zM498 559h313v610 h-8q-82 -188 -139 -299z" />
<glyph unicode="&#xc7;" horiz-adv-x="1193" d="M78 647q0 228 76 394t235.5 261t390.5 95q164 0 318 -37v-397h-201q-18 95 -27 174q-78 16 -139 16q-170 0 -264 -125t-94 -336q0 -228 101 -346.5t325 -118.5q150 0 293 58l16 -246q-180 -59 -369 -59q-327 0 -494 175t-167 492zM496 -410q188 124 84 306h239 q135 -261 -201 -406z" />
<glyph unicode="&#xc8;" horiz-adv-x="1099" d="M47 0v166q100 19 178 24v1002q-70 5 -178 25v165h942v-348h-198q-19 122 -21 140h-278v-369h223q10 63 24 113h170v-416h-170q-11 32 -24 112h-223v-399h280q4 46 23 147h198v-362h-946zM244 1665l112 182l357 -225l-92 -152z" />
<glyph unicode="&#xc9;" horiz-adv-x="1099" d="M47 0v166q100 19 178 24v1002q-70 5 -178 25v165h942v-348h-198q-19 122 -21 140h-278v-369h223q10 63 24 113h170v-416h-170q-11 32 -24 112h-223v-399h280q4 46 23 147h198v-362h-946zM422 1622l358 225l109 -180l-377 -194z" />
<glyph unicode="&#xca;" horiz-adv-x="1099" d="M47 0v166q100 19 178 24v1002q-70 5 -178 25v165h942v-348h-198q-19 122 -21 140h-278v-369h223q10 63 24 113h170v-416h-170q-11 32 -24 112h-223v-399h280q4 46 23 147h198v-362h-946zM254 1636l307 181l313 -179l-83 -153l-232 129l-227 -129z" />
<glyph unicode="&#xcb;" horiz-adv-x="1099" d="M47 0v166q100 19 178 24v1002q-70 5 -178 25v165h942v-348h-198q-19 122 -21 140h-278v-369h223q10 63 24 113h170v-416h-170q-11 32 -24 112h-223v-399h280q4 46 23 147h198v-362h-946zM205 1628q0 60 41 100.5t100 40.5t100 -40.5t41 -100.5q0 -58 -41.5 -99.5 t-99.5 -41.5t-99.5 41.5t-41.5 99.5zM618 1628q0 60 41.5 100.5t100.5 40.5t100 -40.5t41 -100.5q0 -58 -41.5 -99.5t-99.5 -41.5q-59 0 -100.5 41.5t-41.5 99.5z" />
<glyph unicode="&#xcc;" horiz-adv-x="714" d="M41 0v166q100 19 178 24v1002q-70 5 -178 25v165h623v-165q-108 -20 -179 -25v-1002q79 -5 179 -24v-166h-623zM61 1665l111 182l356 -225l-92 -152z" />
<glyph unicode="&#xcd;" horiz-adv-x="714" d="M41 0v166q100 19 178 24v1002q-70 5 -178 25v165h623v-165q-108 -20 -179 -25v-1002q79 -5 179 -24v-166h-623zM158 1622l358 223l109 -178l-377 -194z" />
<glyph unicode="&#xce;" horiz-adv-x="714" d="M41 0v166q100 19 178 24v1002q-70 5 -178 25v165h623v-165q-108 -20 -179 -25v-1002q79 -5 179 -24v-166h-623zM45 1634l307 183l314 -179l-84 -155l-232 131l-227 -131z" />
<glyph unicode="&#xcf;" horiz-adv-x="714" d="M-2 1630q0 59 41.5 100.5t99.5 41.5q59 0 100.5 -42t41.5 -100t-41.5 -99.5t-100.5 -41.5t-100 41.5t-41 99.5zM41 0v166q100 19 178 24v1002q-70 5 -178 25v165h623v-165q-108 -20 -179 -25v-1002q79 -5 179 -24v-166h-623zM412 1630q0 59 41.5 100.5t99.5 41.5 t99.5 -41.5t41.5 -100.5q0 -58 -41 -99.5t-100 -41.5t-100 41.5t-41 99.5z" />
<glyph unicode="&#xd0;" horiz-adv-x="1449" d="M49 0v166q100 19 178 24v412h-157v201h157v389q-70 5 -178 25v165h174q48 0 204.5 4.5t248.5 4.5q698 0 698 -676q0 -175 -55 -313t-156 -227.5t-240.5 -136t-310.5 -46.5q-73 0 -200 4t-185 4h-178zM496 229q62 -10 145 -10q99 0 180 28.5t141.5 85.5t94 149t33.5 212 q0 232 -102.5 352.5t-330.5 120.5q-97 0 -161 -6v-358h245v-201h-245v-373z" />
<glyph unicode="&#xd1;" horiz-adv-x="1558" d="M47 0v166q125 23 178 27v999q-70 5 -178 25v165h522l416 -698q58 -94 154 -291q-15 194 -15 797q-75 6 -139 24v168h526v-168q-55 -14 -129 -24v-1190h-342l-422 702q-70 116 -147 295q12 -179 12 -804q75 -6 148 -25v-168h-584zM451 1706q98 88 211 88q49 0 93 -15.5 t71.5 -34.5t66.5 -34.5t78 -15.5q80 0 145 65l51 -174q-37 -34 -96.5 -60t-114.5 -26q-53 0 -98 15.5t-72 34.5t-65.5 34.5t-79.5 15.5q-72 0 -139 -67z" />
<glyph unicode="&#xd2;" horiz-adv-x="1439" d="M68 674q0 167 53.5 306t145 231.5t214.5 143t262 50.5q140 0 254 -42.5t198.5 -126.5t130.5 -217.5t46 -307.5q0 -167 -53 -306.5t-144.5 -232.5t-214.5 -144t-264 -51q-310 0 -469 184t-159 513zM352 702q0 -227 91 -355t272 -128q70 0 134.5 27.5t118.5 82.5t86.5 148 t32.5 213q0 230 -95 352.5t-273 122.5q-73 0 -138 -29.5t-116.5 -85t-82 -145.5t-30.5 -203zM442 1665l113 182l356 -225l-92 -152z" />
<glyph unicode="&#xd3;" horiz-adv-x="1439" d="M68 674q0 167 53.5 306t145 231.5t214.5 143t262 50.5q140 0 254 -42.5t198.5 -126.5t130.5 -217.5t46 -307.5q0 -167 -53 -306.5t-144.5 -232.5t-214.5 -144t-264 -51q-310 0 -469 184t-159 513zM352 702q0 -227 91 -355t272 -128q70 0 134.5 27.5t118.5 82.5t86.5 148 t32.5 213q0 230 -95 352.5t-273 122.5q-73 0 -138 -29.5t-116.5 -85t-82 -145.5t-30.5 -203zM575 1622l359 225l108 -180l-376 -194z" />
<glyph unicode="&#xd4;" horiz-adv-x="1439" d="M68 674q0 167 53.5 306t145 231.5t214.5 143t262 50.5q140 0 254 -42.5t198.5 -126.5t130.5 -217.5t46 -307.5q0 -167 -53 -306.5t-144.5 -232.5t-214.5 -144t-264 -51q-310 0 -469 184t-159 513zM352 702q0 -227 91 -355t272 -128q70 0 134.5 27.5t118.5 82.5t86.5 148 t32.5 213q0 230 -95 352.5t-273 122.5q-73 0 -138 -29.5t-116.5 -85t-82 -145.5t-30.5 -203zM428 1636l307 181l314 -179l-84 -153l-232 129l-227 -129z" />
<glyph unicode="&#xd5;" horiz-adv-x="1439" d="M68 674q0 167 53.5 306t145 231.5t214.5 143t262 50.5q140 0 254 -42.5t198.5 -126.5t130.5 -217.5t46 -307.5q0 -167 -53 -306.5t-144.5 -232.5t-214.5 -144t-264 -51q-310 0 -469 184t-159 513zM352 702q0 -227 91 -355t272 -128q70 0 134.5 27.5t118.5 82.5t86.5 148 t32.5 213q0 230 -95 352.5t-273 122.5q-73 0 -138 -29.5t-116.5 -85t-82 -145.5t-30.5 -203zM362 1712q98 88 211 88q49 0 93 -15.5t72 -34.5t67 -34.5t78 -15.5q80 0 145 65l51 -174q-37 -34 -96.5 -60t-114.5 -26q-53 0 -98 16t-72 34.5t-65.5 34.5t-79.5 16 q-71 0 -139 -68z" />
<glyph unicode="&#xd6;" horiz-adv-x="1439" d="M68 674q0 167 53.5 306t145 231.5t214.5 143t262 50.5q140 0 254 -42.5t198.5 -126.5t130.5 -217.5t46 -307.5q0 -167 -53 -306.5t-144.5 -232.5t-214.5 -144t-264 -51q-310 0 -469 184t-159 513zM352 702q0 -227 91 -355t272 -128q70 0 134.5 27.5t118.5 82.5t86.5 148 t32.5 213q0 230 -95 352.5t-273 122.5q-73 0 -138 -29.5t-116.5 -85t-82 -145.5t-30.5 -203zM385 1628q0 60 41 100.5t100 40.5t100.5 -40.5t41.5 -100.5q0 -58 -41.5 -99.5t-100.5 -41.5q-58 0 -99.5 41.5t-41.5 99.5zM799 1628q0 60 41 100.5t100 40.5t100 -40.5 t41 -100.5q0 -58 -41.5 -99.5t-99.5 -41.5t-99.5 41.5t-41.5 99.5z" />
<glyph unicode="&#xd7;" horiz-adv-x="1173" d="M119 186l315 318l-315 315l160 160l315 -315l315 315l142 -143l-316 -316l318 -317l-160 -160l-318 317l-313 -315z" />
<glyph unicode="&#xd8;" horiz-adv-x="1439" d="M66 676q0 168 51 306.5t141 230.5t212 142t263 50q66 0 113 -8l67 192l193 -61l-66 -187q154 -71 239 -232.5t85 -408.5q0 -165 -51.5 -302t-142 -228.5t-213 -142t-263.5 -50.5q-73 0 -127 11l-71 -203l-193 61l70 201q-153 78 -230 241.5t-77 387.5zM336 696 q0 -282 127 -385l303 846q-48 8 -115 -2q-136 -20 -225.5 -138.5t-89.5 -320.5zM647 219q37 -10 98 -6q150 11 249.5 131.5t99.5 339.5q0 137 -36 240.5t-106 156.5z" />
<glyph unicode="&#xd9;" horiz-adv-x="1456" d="M47 1214v168h543v-168q-55 -14 -148 -22v-696q0 -70 12.5 -121t43.5 -92.5t88.5 -62.5t140.5 -21q156 0 224.5 73t68.5 248v672q-94 8 -148 22v168h537v-168q-64 -16 -127 -22v-662q0 -553 -571 -553q-91 0 -166.5 14t-130.5 39t-96.5 61.5t-68 78.5t-43.5 94 t-23.5 103.5t-6.5 111.5v713q-66 6 -129 22zM399 1665l113 182l356 -225l-92 -152z" />
<glyph unicode="&#xda;" horiz-adv-x="1456" d="M47 1214v168h543v-168q-55 -14 -148 -22v-696q0 -70 12.5 -121t43.5 -92.5t88.5 -62.5t140.5 -21q156 0 224.5 73t68.5 248v672q-94 8 -148 22v168h537v-168q-64 -16 -127 -22v-662q0 -553 -571 -553q-91 0 -166.5 14t-130.5 39t-96.5 61.5t-68 78.5t-43.5 94 t-23.5 103.5t-6.5 111.5v713q-66 6 -129 22zM592 1622l358 225l109 -180l-377 -194z" />
<glyph unicode="&#xdb;" horiz-adv-x="1456" d="M47 1214v168h543v-168q-55 -14 -148 -22v-696q0 -70 12.5 -121t43.5 -92.5t88.5 -62.5t140.5 -21q156 0 224.5 73t68.5 248v672q-94 8 -148 22v168h537v-168q-64 -16 -127 -22v-662q0 -553 -571 -553q-91 0 -166.5 14t-130.5 39t-96.5 61.5t-68 78.5t-43.5 94 t-23.5 103.5t-6.5 111.5v713q-66 6 -129 22zM414 1636l307 181l313 -179l-84 -153l-231 129l-227 -129z" />
<glyph unicode="&#xdc;" horiz-adv-x="1456" d="M47 1214v168h543v-168q-55 -14 -148 -22v-696q0 -70 12.5 -121t43.5 -92.5t88.5 -62.5t140.5 -21q156 0 224.5 73t68.5 248v672q-94 8 -148 22v168h537v-168q-64 -16 -127 -22v-662q0 -553 -571 -553q-91 0 -166.5 14t-130.5 39t-96.5 61.5t-68 78.5t-43.5 94 t-23.5 103.5t-6.5 111.5v713q-66 6 -129 22zM375 1628q0 60 41 100.5t100 40.5t100 -40.5t41 -100.5q0 -58 -41.5 -99.5t-99.5 -41.5t-99.5 41.5t-41.5 99.5zM788 1628q0 60 41.5 100.5t100.5 40.5t100 -40.5t41 -100.5q0 -58 -41.5 -99.5t-99.5 -41.5q-59 0 -100.5 41.5 t-41.5 99.5z" />
<glyph unicode="&#xdd;" horiz-adv-x="1251" d="M16 1214v168h527v-168q-52 -13 -121 -20l125 -272q59 -129 82 -191h6q29 72 88 197l127 266q-75 7 -123 20v168h510v-168q-64 -15 -109 -18l-372 -725v-281q78 -5 178 -24v-166h-623v166q100 19 178 24v281l-366 725q-50 3 -107 18zM510 1620l356 225l109 -180l-375 -195 z" />
<glyph unicode="&#xde;" horiz-adv-x="1236" d="M47 0v166q100 19 178 24v1002q-70 5 -178 25v165h623v-165q-108 -20 -178 -25v-88q79 8 192 8q504 0 504 -373q0 -135 -71 -235t-191 -150.5t-273 -50.5q-49 0 -161 10v-123q78 -5 178 -24v-166h-623zM492 526q62 -10 131 -10q131 0 202.5 55.5t71.5 151.5q0 82 -63 131 t-197 49q-76 0 -145 -14v-363z" />
<glyph unicode="&#xdf;" horiz-adv-x="1417" d="M49 838v163q119 13 182 15q3 241 135.5 365t376.5 124q209 0 323 -88t114 -229q0 -69 -23.5 -119.5t-56.5 -79.5t-66 -53.5t-56.5 -57.5t-23.5 -75q0 -34 23 -62t60 -50t81.5 -44.5t89 -51t81.5 -63t60 -87t23 -117.5q0 -147 -108.5 -244.5t-309.5 -97.5q-123 0 -243 20 v309h168q9 -49 18 -127q24 -8 70 -8q141 0 141 119q0 35 -23.5 63.5t-61 49.5t-82.5 42t-90 48t-82.5 60t-61 85.5t-23.5 118.5q0 59 23 105t56 76.5t65.5 59t55.5 66t23 84.5q0 62 -47.5 100.5t-130.5 38.5q-118 0 -177.5 -73t-59.5 -234v-799q82 -7 139 -24v-166h-578v166 q100 19 178 24v627q-91 15 -182 21z" />
<glyph unicode="&#xe0;" d="M78 248q0 177 159.5 271t428.5 97v62q0 85 -41.5 124.5t-145.5 39.5q-75 0 -143 -19q-3 -33 -21 -133h-165v299q181 53 356 53q121 0 204.5 -23.5t130.5 -71.5t67 -110.5t20 -150.5v-485q95 -15 168 -21v-166q-192 -23 -410 -16q0 108 10 174l-2 2q-37 -87 -124.5 -140.5 t-200.5 -53.5q-137 0 -214 72t-77 196zM244 1346l112 182l357 -225l-92 -152zM328 287q0 -50 32 -79.5t89 -29.5q94 0 155.5 74t61.5 172v22q-338 0 -338 -159z" />
<glyph unicode="&#xe1;" d="M78 248q0 177 159.5 271t428.5 97v62q0 85 -41.5 124.5t-145.5 39.5q-75 0 -143 -19q-3 -33 -21 -133h-165v299q181 53 356 53q121 0 204.5 -23.5t130.5 -71.5t67 -110.5t20 -150.5v-485q95 -15 168 -21v-166q-192 -23 -410 -16q0 108 10 174l-2 2q-37 -87 -124.5 -140.5 t-200.5 -53.5q-137 0 -214 72t-77 196zM328 287q0 -50 32 -79.5t89 -29.5q94 0 155.5 74t61.5 172v22q-338 0 -338 -159zM362 1303l359 225l108 -180l-376 -195z" />
<glyph unicode="&#xe2;" d="M78 248q0 177 159.5 271t428.5 97v62q0 85 -41.5 124.5t-145.5 39.5q-75 0 -143 -19q-3 -33 -21 -133h-165v299q181 53 356 53q121 0 204.5 -23.5t130.5 -71.5t67 -110.5t20 -150.5v-485q95 -15 168 -21v-166q-192 -23 -410 -16q0 108 10 174l-2 2q-37 -87 -124.5 -140.5 t-200.5 -53.5q-137 0 -214 72t-77 196zM227 1317l308 180l313 -178l-84 -154l-232 129l-227 -129zM328 287q0 -50 32 -79.5t89 -29.5q94 0 155.5 74t61.5 172v22q-338 0 -338 -159z" />
<glyph unicode="&#xe3;" d="M78 248q0 177 159.5 271t428.5 97v62q0 85 -41.5 124.5t-145.5 39.5q-75 0 -143 -19q-3 -33 -21 -133h-165v299q181 53 356 53q121 0 204.5 -23.5t130.5 -71.5t67 -110.5t20 -150.5v-485q95 -15 168 -21v-166q-192 -23 -410 -16q0 108 10 174l-2 2q-37 -87 -124.5 -140.5 t-200.5 -53.5q-137 0 -214 72t-77 196zM174 1386q99 89 211 89q49 0 93 -16t71.5 -34.5t66.5 -34.5t78 -16q80 0 146 66l51 -174q-37 -34 -96.5 -60t-114.5 -26q-53 0 -98 15.5t-72 34.5t-65.5 34.5t-79.5 15.5q-72 0 -140 -68zM328 287q0 -50 32 -79.5t89 -29.5 q94 0 155.5 74t61.5 172v22q-338 0 -338 -159z" />
<glyph unicode="&#xe4;" d="M78 248q0 177 159.5 271t428.5 97v62q0 85 -41.5 124.5t-145.5 39.5q-75 0 -143 -19q-3 -33 -21 -133h-165v299q181 53 356 53q121 0 204.5 -23.5t130.5 -71.5t67 -110.5t20 -150.5v-485q95 -15 168 -21v-166q-192 -23 -410 -16q0 108 10 174l-2 2q-37 -87 -124.5 -140.5 t-200.5 -53.5q-137 0 -214 72t-77 196zM186 1327q0 60 41.5 100.5t100.5 40.5t100 -40.5t41 -100.5q0 -59 -41.5 -100t-99.5 -41q-59 0 -100.5 41.5t-41.5 99.5zM328 287q0 -50 32 -79.5t89 -29.5q94 0 155.5 74t61.5 172v22q-338 0 -338 -159zM600 1327q0 60 41 100.5 t100 40.5t100.5 -40.5t41.5 -100.5q0 -58 -41.5 -99.5t-100.5 -41.5t-100 41t-41 100z" />
<glyph unicode="&#xe5;" d="M78 248q0 177 159.5 271t428.5 97v62q0 85 -41.5 124.5t-145.5 39.5q-75 0 -143 -19q-3 -33 -21 -133h-165v299q181 53 356 53q121 0 204.5 -23.5t130.5 -71.5t67 -110.5t20 -150.5v-485q95 -15 168 -21v-166q-192 -23 -410 -16q0 108 10 174l-2 2q-37 -87 -124.5 -140.5 t-200.5 -53.5q-137 0 -214 72t-77 196zM268 1366q0 106 76 177t184 71q110 0 185 -71t75 -177q0 -105 -76 -177.5t-184 -72.5q-110 0 -185 71t-75 179zM328 287q0 -50 32 -79.5t89 -29.5q94 0 155.5 74t61.5 172v22q-338 0 -338 -159zM420 1366q0 -44 32 -76.5t76 -32.5 t75.5 32.5t31.5 76.5t-31.5 76.5t-75.5 32.5t-76 -32.5t-32 -76.5z" />
<glyph unicode="&#xe6;" horiz-adv-x="1638" d="M78 248q0 177 159.5 271t428.5 97v62q0 83 -42.5 123.5t-144.5 40.5q-75 0 -143 -19q-3 -33 -21 -133h-165v299q181 53 356 53q231 0 328 -124h2q46 55 124.5 88.5t172.5 33.5q108 0 191.5 -35t134.5 -97.5t76.5 -143.5t25.5 -178q0 -54 -9 -119h-630q-3 -283 278 -283 q162 0 299 64l25 -203q-165 -65 -365 -65q-157 0 -264.5 55t-159.5 151l-2 -2q-52 -89 -144 -146.5t-227 -57.5t-209.5 72t-74.5 196zM328 287q0 -48 32.5 -78.5t88.5 -30.5q94 0 155.5 74t61.5 172v22q-338 0 -338 -159zM926 645h374q3 95 -44.5 149t-131.5 54 q-81 0 -134 -55t-64 -148z" />
<glyph unicode="&#xe7;" horiz-adv-x="915" d="M70 475q0 121 32 221.5t95.5 177.5t168 119.5t240.5 42.5q125 0 238 -35v-327h-168q-19 119 -21 135q-31 10 -84 10q-106 0 -167.5 -82.5t-61.5 -226.5q0 -147 63.5 -224t210.5 -77q120 0 215 45l19 -225q-146 -47 -293 -47q-231 0 -359 121t-128 372zM309 -410 q188 124 84 306h240q135 -261 -201 -406z" />
<glyph unicode="&#xe8;" horiz-adv-x="1052" d="M70 500q0 240 127 390t350 150q108 0 191.5 -35t134.5 -97.5t76.5 -143.5t25.5 -178q0 -62 -8 -119h-631q-3 -283 280 -283q160 0 297 64l25 -203q-165 -65 -365 -65q-503 0 -503 520zM256 1346l113 182l356 -225l-92 -152zM340 645h375q3 95 -44.5 149t-131.5 54 q-81 0 -134.5 -55t-64.5 -148z" />
<glyph unicode="&#xe9;" horiz-adv-x="1052" d="M70 500q0 240 127 390t350 150q108 0 191.5 -35t134.5 -97.5t76.5 -143.5t25.5 -178q0 -62 -8 -119h-631q-3 -283 280 -283q160 0 297 64l25 -203q-165 -65 -365 -65q-503 0 -503 520zM340 645h375q3 95 -44.5 149t-131.5 54q-81 0 -134.5 -55t-64.5 -148zM375 1303 l358 225l109 -180l-377 -195z" />
<glyph unicode="&#xea;" horiz-adv-x="1052" d="M70 500q0 240 127 390t350 150q108 0 191.5 -35t134.5 -97.5t76.5 -143.5t25.5 -178q0 -62 -8 -119h-631q-3 -283 280 -283q160 0 297 64l25 -203q-165 -65 -365 -65q-503 0 -503 520zM231 1317l308 180l313 -178l-84 -154l-231 129l-228 -129zM340 645h375 q3 95 -44.5 149t-131.5 54q-81 0 -134.5 -55t-64.5 -148z" />
<glyph unicode="&#xeb;" horiz-adv-x="1052" d="M70 500q0 240 127 390t350 150q108 0 191.5 -35t134.5 -97.5t76.5 -143.5t25.5 -178q0 -62 -8 -119h-631q-3 -283 280 -283q160 0 297 64l25 -203q-165 -65 -365 -65q-503 0 -503 520zM199 1327q0 60 41 100.5t100 40.5t100 -40.5t41 -100.5q0 -59 -41.5 -100t-99.5 -41 t-99.5 41t-41.5 100zM340 645h375q3 95 -44.5 149t-131.5 54q-81 0 -134.5 -55t-64.5 -148zM612 1327q0 60 41.5 100.5t100.5 40.5t100 -40.5t41 -100.5q0 -59 -41.5 -100t-99.5 -41q-59 0 -100.5 41.5t-41.5 99.5z" />
<glyph unicode="&#xec;" horiz-adv-x="696" d="M20 1346l111 182l356 -225l-92 -152zM41 0v166q100 19 178 24v627q-94 15 -178 21v163q203 25 438 19v-830q79 -6 166 -24v-166h-604z" />
<glyph unicode="&#xed;" horiz-adv-x="696" d="M41 0v166q100 19 178 24v627q-94 15 -178 21v163q203 25 438 19v-830q79 -6 166 -24v-166h-604zM133 1303l359 225l108 -180l-377 -195z" />
<glyph unicode="&#xee;" horiz-adv-x="696" d="M27 1317l307 180l315 -178l-84 -154l-233 129l-226 -129zM41 0v166q100 19 178 24v627q-94 15 -178 21v163q203 25 438 19v-830q79 -6 166 -24v-166h-604z" />
<glyph unicode="&#xef;" horiz-adv-x="696" d="M-25 1327q0 60 41.5 100.5t100.5 40.5t100 -40.5t41 -100.5q0 -59 -41 -100t-100 -41t-100.5 41.5t-41.5 99.5zM41 0v166q100 19 178 24v627q-94 15 -178 21v163q203 25 438 19v-830q79 -6 166 -24v-166h-604zM389 1327q0 60 41 100.5t100 40.5t100.5 -40.5t41.5 -100.5 q0 -58 -41.5 -99.5t-100.5 -41.5q-58 0 -99.5 41t-41.5 100z" />
<glyph unicode="&#xf0;" horiz-adv-x="1161" d="M80 467q0 237 135 374.5t350 137.5q146 0 217 -74q-46 177 -133 271l-160 -117l-159 112l143 105q-64 37 -149 37q-61 0 -131 -13v205q62 8 135 8q183 0 323 -73l148 108l157 -112l-139 -107q236 -231 236 -717q0 -135 -29.5 -244.5t-78 -180.5t-115 -118.5t-138 -68 t-149.5 -20.5q-228 1 -345.5 130t-117.5 357zM344 471q0 -124 58 -193t159 -69q113 0 171.5 85t58.5 243q0 114 -49 173.5t-162 59.5q-108 0 -172 -74t-64 -225z" />
<glyph unicode="&#xf1;" horiz-adv-x="1316" d="M53 0v166q100 19 178 24v627q-94 15 -178 21v163q205 25 424 19q0 -108 -14 -182l2 -2q47 94 136 149t210 55q83 0 143.5 -25t94.5 -71t49.5 -102.5t15.5 -126.5v-525q75 -5 168 -24v-166h-428v651q0 84 -28 127t-97 43q-99 0 -168 -97t-69 -232v-302q96 -8 149 -22v-168 h-588zM291 1386q99 89 211 89q49 0 93 -16t71.5 -34.5t66.5 -34.5t78 -16q79 0 145 66l52 -174q-37 -34 -96.5 -60t-114.5 -26q-53 0 -98.5 15.5t-72 34.5t-65.5 34.5t-80 15.5q-71 0 -139 -68z" />
<glyph unicode="&#xf2;" d="M68 492q0 239 144.5 392.5t375.5 153.5q224 0 349.5 -127.5t125.5 -382.5q0 -240 -146 -394t-374 -154q-226 0 -350.5 125t-124.5 387zM299 1346l113 182l356 -225l-92 -152zM338 518q0 -315 227 -315q101 0 164.5 80.5t63.5 230.5q0 303 -224 303q-96 0 -163.5 -76 t-67.5 -223z" />
<glyph unicode="&#xf3;" d="M68 492q0 239 144.5 392.5t375.5 153.5q224 0 349.5 -127.5t125.5 -382.5q0 -240 -146 -394t-374 -154q-226 0 -350.5 125t-124.5 387zM338 518q0 -315 227 -315q101 0 164.5 80.5t63.5 230.5q0 303 -224 303q-96 0 -163.5 -76t-67.5 -223zM403 1303l359 225l108 -180 l-376 -195z" />
<glyph unicode="&#xf4;" d="M68 492q0 239 144.5 392.5t375.5 153.5q224 0 349.5 -127.5t125.5 -382.5q0 -240 -146 -394t-374 -154q-226 0 -350.5 125t-124.5 387zM266 1317l307 180l314 -178l-84 -154l-232 129l-227 -129zM338 518q0 -315 227 -315q101 0 164.5 80.5t63.5 230.5q0 303 -224 303 q-96 0 -163.5 -76t-67.5 -223z" />
<glyph unicode="&#xf5;" d="M68 492q0 239 144.5 392.5t375.5 153.5q224 0 349.5 -127.5t125.5 -382.5q0 -240 -146 -394t-374 -154q-226 0 -350.5 125t-124.5 387zM221 1386q99 89 211 89q49 0 93 -16t71.5 -34.5t66.5 -34.5t78 -16q80 0 146 66l51 -174q-37 -34 -96.5 -60t-114.5 -26 q-53 0 -98 15.5t-72 34.5t-65.5 34.5t-79.5 15.5q-72 0 -140 -68zM338 518q0 -315 227 -315q101 0 164.5 80.5t63.5 230.5q0 303 -224 303q-96 0 -163.5 -76t-67.5 -223z" />
<glyph unicode="&#xf6;" d="M68 492q0 239 144.5 392.5t375.5 153.5q224 0 349.5 -127.5t125.5 -382.5q0 -240 -146 -394t-374 -154q-226 0 -350.5 125t-124.5 387zM227 1327q0 60 41.5 100.5t100.5 40.5t100 -40.5t41 -100.5q0 -59 -41 -100t-100 -41t-100.5 41.5t-41.5 99.5zM338 518 q0 -315 227 -315q101 0 164.5 80.5t63.5 230.5q0 303 -224 303q-96 0 -163.5 -76t-67.5 -223zM641 1327q0 60 41 100.5t100 40.5t100.5 -40.5t41.5 -100.5q0 -58 -41.5 -99.5t-100.5 -41.5q-58 0 -99.5 41t-41.5 100z" />
<glyph unicode="&#xf7;" horiz-adv-x="1239" d="M98 418v221h1043v-221h-1043zM459 117q0 66 46.5 112.5t112.5 46.5t113 -46.5t47 -112.5t-47 -113t-113 -47t-112.5 47t-46.5 113zM459 938q0 66 46.5 114t112.5 48t113 -48t47 -114t-47 -113t-113 -47t-112.5 47t-46.5 113z" />
<glyph unicode="&#xf8;" d="M63 498q0 244 141.5 393t370.5 149q49 0 93 -6l71 191l152 -47l-72 -187q232 -113 232 -465q0 -242 -143 -395.5t-369 -153.5q-49 0 -109 11l-80 -207l-151 47l80 207q-105 60 -160.5 178.5t-55.5 284.5zM307 512q0 -158 70 -231l209 544q-41 4 -62 2q-92 -12 -154.5 -90 t-62.5 -225zM512 199q43 -11 78 -6q95 8 156 90t61 235q0 169 -80 240z" />
<glyph unicode="&#xf9;" horiz-adv-x="1292" d="M37 838v166q189 22 428 16v-653q0 -84 28 -127t97 -43q99 0 168 97t69 232v293q-108 16 -149 19v168q201 20 412 14v-819q97 -16 165 -21v-166q-192 -23 -409 -16q0 116 12 182l-4 2q-48 -94 -137 -149.5t-209 -55.5q-83 0 -143.5 25.5t-94.5 71.5t-49.5 102.5 t-15.5 126.5v514q-95 15 -168 21zM330 1346l112 182l357 -225l-92 -152z" />
<glyph unicode="&#xfa;" horiz-adv-x="1292" d="M37 838v166q189 22 428 16v-653q0 -84 28 -127t97 -43q99 0 168 97t69 232v293q-108 16 -149 19v168q201 20 412 14v-819q97 -16 165 -21v-166q-192 -23 -409 -16q0 116 12 182l-4 2q-48 -94 -137 -149.5t-209 -55.5q-83 0 -143.5 25.5t-94.5 71.5t-49.5 102.5 t-15.5 126.5v514q-95 15 -168 21zM481 1303l359 225l108 -180l-377 -195z" />
<glyph unicode="&#xfb;" horiz-adv-x="1292" d="M37 838v166q189 22 428 16v-653q0 -84 28 -127t97 -43q99 0 168 97t69 232v293q-108 16 -149 19v168q201 20 412 14v-819q97 -16 165 -21v-166q-192 -23 -409 -16q0 116 12 182l-4 2q-48 -94 -137 -149.5t-209 -55.5q-83 0 -143.5 25.5t-94.5 71.5t-49.5 102.5 t-15.5 126.5v514q-95 15 -168 21zM317 1317l308 180l313 -178l-84 -154l-231 129l-228 -129z" />
<glyph unicode="&#xfc;" horiz-adv-x="1292" d="M37 838v166q189 22 428 16v-653q0 -84 28 -127t97 -43q99 0 168 97t69 232v293q-108 16 -149 19v168q201 20 412 14v-819q97 -16 165 -21v-166q-192 -23 -409 -16q0 116 12 182l-4 2q-48 -94 -137 -149.5t-209 -55.5q-83 0 -143.5 25.5t-94.5 71.5t-49.5 102.5 t-15.5 126.5v514q-95 15 -168 21zM281 1327q0 60 41 100.5t100 40.5t100 -40.5t41 -100.5q0 -59 -41.5 -100t-99.5 -41t-99.5 41t-41.5 100zM694 1327q0 60 41.5 100.5t100.5 40.5t100 -40.5t41 -100.5q0 -59 -41.5 -100t-99.5 -41q-59 0 -100.5 41.5t-41.5 99.5z" />
<glyph unicode="&#xfd;" horiz-adv-x="1159" d="M16 850v168h490v-168q-59 -14 -103 -19l103 -290q37 -106 80 -273h2q39 162 88 301l90 262q-43 5 -102 19v168h479v-168q-53 -15 -111 -21l-323 -935q-78 -228 -182.5 -317t-282.5 -89q-80 0 -158 16l14 226q76 -23 146 -23t118.5 43t86.5 152l34 98h-75l-283 829 q-63 6 -111 21zM451 1303l356 225l111 -180l-377 -195z" />
<glyph unicode="&#xfe;" horiz-adv-x="1183" d="M8 -328q108 20 178 25v1597q-94 15 -178 21v164q199 24 441 18v-420q0 -130 -13 -209h4q40 78 117.5 124t185.5 46q180 0 276.5 -124t96.5 -351q0 -267 -138 -422t-398 -155q-74 0 -131 8v-297q70 -5 178 -25v-166h-619v166zM449 207q62 -19 135 -19q120 0 188 83.5 t68 263.5q0 288 -174 288q-99 0 -158 -98.5t-59 -235.5v-282z" />
<glyph unicode="&#xff;" horiz-adv-x="1159" d="M16 850v168h490v-168q-59 -14 -103 -19l103 -290q37 -106 80 -273h2q39 162 88 301l90 262q-43 5 -102 19v168h479v-168q-53 -15 -111 -21l-323 -935q-78 -228 -182.5 -317t-282.5 -89q-80 0 -158 16l14 226q76 -23 146 -23t118.5 43t86.5 152l34 98h-75l-283 829 q-63 6 -111 21zM213 1327q0 60 41 100.5t100 40.5t100.5 -40.5t41.5 -100.5q0 -58 -41.5 -99.5t-100.5 -41.5q-58 0 -99.5 41t-41.5 100zM627 1327q0 60 41 100.5t100 40.5t100 -40.5t41 -100.5q0 -59 -41.5 -100t-99.5 -41t-99.5 41t-41.5 100z" />
<glyph unicode="&#x152;" horiz-adv-x="1701" d="M70 676q0 163 51.5 299.5t140 227.5t207 141.5t252.5 50.5q49 0 139 -6.5t133 -6.5h594v-348h-198q-18 92 -23 140h-276v-369h225q12 78 22 113h170v-416h-170q-16 56 -22 112h-225v-399h282q2 28 11.5 82t11.5 65h200v-362h-591q-60 0 -161.5 -8t-158.5 -8 q-154 0 -272 50t-192.5 142t-112 218t-37.5 282zM348 698q0 -222 90.5 -349.5t276.5 -127.5q60 0 108 10v920q-47 8 -108 8q-158 0 -262.5 -125t-104.5 -336z" />
<glyph unicode="&#x153;" horiz-adv-x="1759" d="M68 500q0 241 141.5 389.5t368.5 148.5q110 0 200.5 -37.5t145.5 -111.5q121 151 329 151q108 0 191.5 -35t134.5 -97.5t76.5 -143.5t25.5 -178q0 -33 -8 -119h-631q-3 -283 279 -283q161 0 301 64l23 -203q-165 -65 -365 -65q-272 0 -387 165q-57 -76 -148 -120.5 t-208 -44.5q-230 0 -349.5 132.5t-119.5 387.5zM324 512q0 -315 233 -315q103 0 167 82t64 235q0 156 -55.5 232.5t-175.5 76.5q-45 0 -84.5 -16.5t-74 -51.5t-54.5 -97.5t-20 -145.5zM1044 645h377q3 95 -44.5 149t-131.5 54q-81 0 -135 -55.5t-66 -147.5z" />
<glyph unicode="&#x178;" horiz-adv-x="1251" d="M16 1214v168h527v-168q-52 -13 -121 -20l125 -272q59 -129 82 -191h6q29 72 88 197l127 266q-75 7 -123 20v168h510v-168q-64 -15 -109 -18l-372 -725v-281q78 -5 178 -24v-166h-623v166q100 19 178 24v281l-366 725q-50 3 -107 18zM256 1628q0 60 41 100.5t100 40.5 t100.5 -40.5t41.5 -100.5q0 -58 -41.5 -99.5t-100.5 -41.5t-100 41.5t-41 99.5zM670 1628q0 60 41 100.5t100 40.5t100 -40.5t41 -100.5q0 -58 -41 -99.5t-100 -41.5t-100 41.5t-41 99.5z" />
<glyph unicode="&#x2c6;" horiz-adv-x="872" d="M127 1317l307 180l314 -178l-84 -154l-232 129l-227 -129z" />
<glyph unicode="&#x2dc;" horiz-adv-x="956" d="M135 1386q99 89 211 89q49 0 93 -16t71.5 -34.5t66.5 -34.5t78 -16q80 0 146 66l51 -174q-37 -34 -96.5 -60t-114.5 -26q-53 0 -98 15.5t-72 34.5t-65.5 34.5t-79.5 15.5q-72 0 -140 -68z" />
<glyph unicode="&#x2000;" horiz-adv-x="923" />
<glyph unicode="&#x2001;" horiz-adv-x="1847" />
<glyph unicode="&#x2002;" horiz-adv-x="923" />
<glyph unicode="&#x2003;" horiz-adv-x="1847" />
<glyph unicode="&#x2004;" horiz-adv-x="615" />
<glyph unicode="&#x2005;" horiz-adv-x="461" />
<glyph unicode="&#x2006;" horiz-adv-x="307" />
<glyph unicode="&#x2007;" horiz-adv-x="307" />
<glyph unicode="&#x2008;" horiz-adv-x="230" />
<glyph unicode="&#x2009;" horiz-adv-x="369" />
<glyph unicode="&#x200a;" horiz-adv-x="102" />
<glyph unicode="&#x2010;" horiz-adv-x="684" d="M90 416v209h504v-209h-504z" />
<glyph unicode="&#x2011;" horiz-adv-x="684" d="M90 416v209h504v-209h-504z" />
<glyph unicode="&#x2012;" horiz-adv-x="684" d="M90 416v209h504v-209h-504z" />
<glyph unicode="&#x2013;" horiz-adv-x="1024" d="M0 477v230h1024v-230h-1024z" />
<glyph unicode="&#x2014;" horiz-adv-x="2048" d="M0 477v230h2048v-230h-2048z" />
<glyph unicode="&#x2018;" horiz-adv-x="546" d="M116 1198q53 179 249 350l106 -96q-68 -73 -97 -131.5t-24.5 -101t37.5 -82.5q29 -33 34 -76.5t-11 -81.5t-54.5 -64t-89.5 -26q-87 0 -134 76q-57 93 -16 233z" />
<glyph unicode="&#x2019;" horiz-adv-x="546" d="M74 967q68 74 97 132t24 101t-39 82q-28 33 -32.5 76.5t11.5 81.5t54.5 64t89.5 26q87 0 134 -76q57 -94 15 -235q-53 -178 -248 -349z" />
<glyph unicode="&#x201a;" horiz-adv-x="546" d="M74 -258q68 74 97 131.5t24 100t-39 81.5q-28 34 -32.5 78t11.5 81.5t54.5 64t89.5 26.5q87 0 134 -76q57 -94 15 -235q-54 -178 -248 -348z" />
<glyph unicode="&#x201c;" horiz-adv-x="993" d="M116 1198q53 179 249 350l106 -96q-68 -73 -97 -131.5t-24.5 -101t37.5 -82.5q29 -33 34 -76.5t-11 -81.5t-54.5 -64t-89.5 -26q-87 0 -134 76q-57 93 -16 233zM564 1201q53 177 247 347l109 -96q-68 -73 -97 -131.5t-24.5 -101t37.5 -82.5q28 -33 32.5 -76.5t-11 -81.5 t-53.5 -64t-89 -26q-89 0 -136 77q-57 94 -15 235z" />
<glyph unicode="&#x201d;" horiz-adv-x="993" d="M74 967q68 74 97 132t24 101t-39 82q-28 33 -32.5 76.5t11.5 81.5t54.5 64t89.5 26q87 0 134 -76q57 -94 15 -235q-53 -178 -248 -349zM520 967q68 73 97 131.5t24.5 101t-37.5 82.5q-28 33 -32.5 76.5t11 81.5t53.5 64t89 26q89 0 136 -77q57 -94 15 -235 q-53 -178 -247 -348z" />
<glyph unicode="&#x201e;" horiz-adv-x="993" d="M74 -258q68 74 97 131.5t24 100t-39 81.5q-28 34 -32.5 78t11.5 81.5t54.5 64t89.5 26.5q87 0 134 -76q57 -94 15 -235q-54 -178 -248 -348zM520 -258q68 74 97 131.5t24.5 99.5t-37.5 82q-28 34 -32.5 78t11 81.5t53.5 64t89 26.5q89 0 136 -77q57 -94 15 -235 q-53 -177 -247 -347z" />
<glyph unicode="&#x2022;" horiz-adv-x="878" d="M129 604q0 125 88.5 214t214.5 89q124 0 213.5 -89.5t89.5 -213.5q0 -126 -89 -214.5t-214 -88.5q-126 0 -214.5 88.5t-88.5 214.5z" />
<glyph unicode="&#x2026;" horiz-adv-x="1527" d="M96 143q0 69 49.5 118.5t118.5 49.5t117.5 -49.5t48.5 -118.5t-48.5 -118.5t-117.5 -49.5t-118.5 49.5t-49.5 118.5zM592 143q0 69 48.5 118.5t117.5 49.5t118.5 -49.5t49.5 -118.5t-49.5 -118.5t-118.5 -49.5t-117.5 49.5t-48.5 118.5zM1085 143q0 69 49.5 118.5 t118.5 49.5q68 0 117 -49.5t49 -118.5t-49 -118.5t-117 -49.5q-69 0 -118.5 49.5t-49.5 118.5z" />
<glyph unicode="&#x202f;" horiz-adv-x="369" />
<glyph unicode="&#x2039;" horiz-adv-x="638" d="M84 508l235 399l201 -98l-186 -301l188 -295l-209 -98z" />
<glyph unicode="&#x203a;" horiz-adv-x="638" d="M117 807l209 100l231 -395l-238 -397l-200 96l186 301z" />
<glyph unicode="&#x205f;" horiz-adv-x="461" />
<glyph unicode="&#x20ac;" horiz-adv-x="1126" d="M25 430v150h139q-2 25 -2 77v66h-137v147h153q42 253 186 394t381 141q110 0 277 -29v-350h-164q-21 69 -24 143q-73 13 -121 13q-207 0 -248 -312h348v-147h-358v-31q0 -77 2 -112h356v-150h-338q26 -122 95 -176.5t198 -54.5q137 0 244 49l26 -215q-142 -56 -342 -56 q-215 0 -345.5 113.5t-170.5 339.5h-155z" />
<glyph unicode="&#x2122;" horiz-adv-x="1759" d="M68 1122v260h610v-260h-121q-15 98 -16 115h-76v-344q60 -7 108 -21v-110h-401v110q44 14 107 21v344h-76q0 -7 -17 -115h-118zM692 762v115q9 1 37 6t39 6l74 362q-38 4 -99 17v114h353l73 -270l19 -88l18 82l80 276h356v-114q-60 -12 -98 -17l74 -362q45 -4 76 -10 v-117h-332v110q45 14 65 17l-32 178l-13 80l-18 -70l-88 -315h-184l-86 317l-17 68l-8 -57l-35 -201q47 -9 66 -17v-110h-320z" />
<glyph unicode="&#xe000;" horiz-adv-x="1013" d="M0 0v1014h1014v-1014h-1014z" />
</font>
</defs>
</svg>
